<svg width="281" height="165" viewBox="0 0 281 165" fill="none" xmlns="http://www.w3.org/2000/svg">
<path d="M0.5 163.584L280.5 163.307" stroke="#55BDFC" stroke-width="1.3022" stroke-miterlimit="10"/>
<path d="M224.549 17.7237L77.0212 0.493508C75.5229 0.318499 74.0048 0.440607 72.5537 0.852856C71.1025 1.2651 69.7468 1.95942 68.5638 2.89613C67.3809 3.83285 66.3939 4.99362 65.6593 6.31213C64.9247 7.63064 64.4569 9.08105 64.2826 10.5805L53.3196 104.918C53.1447 106.417 53.2668 107.936 53.6787 109.388C54.0906 110.841 54.7844 112.197 55.7205 113.381C56.6565 114.565 57.8164 115.553 59.1339 116.288C60.4515 117.023 61.9008 117.491 63.3992 117.666L210.927 134.896C212.425 135.071 213.943 134.949 215.394 134.536C216.846 134.124 218.201 133.43 219.384 132.493C220.567 131.556 221.554 130.396 222.289 129.077C223.023 127.759 223.491 126.308 223.665 124.809L234.673 30.4275C235.013 27.3995 234.137 24.3603 232.239 21.9781C230.34 19.5958 227.574 18.0655 224.549 17.7237Z" fill="#E2F4FF"/>
<rect x="70.0234" y="29.6167" width="150.996" height="1.29425" rx="0.647125" transform="rotate(6.5 70.0234 29.6167)" fill="#02519B"/>
<rect x="68.7305" y="42.1279" width="146.682" height="1.29425" rx="0.647125" transform="rotate(6.5 68.7305 42.1279)" fill="#02519B"/>
<rect x="67.4355" y="54.6392" width="150.996" height="1.29425" rx="0.647125" transform="rotate(6.5 67.4355 54.6392)" fill="#02519B"/>
<rect x="66.1406" y="67.1499" width="138.053" height="1.29425" rx="0.647125" transform="rotate(6.5 66.1406 67.1499)" fill="#02519B"/>
<rect x="64.8477" y="79.6611" width="146.682" height="1.29425" rx="0.647125" transform="rotate(6.5 64.8477 79.6611)" fill="#02519B"/>
<rect x="63.5527" y="92.1724" width="150.996" height="1.29425" rx="0.647125" transform="rotate(6.5 63.5527 92.1724)" fill="#02519B"/>
<rect x="62.2598" y="104.683" width="155.31" height="1.29425" rx="0.647125" transform="rotate(6.5 62.2598 104.683)" fill="#02519B"/>
<path d="M233.542 39.7719L234.629 30.4275C234.969 27.4063 234.1 24.3732 232.211 21.9922C230.322 19.6112 227.567 18.0763 224.549 17.7237L77.0215 0.493508C75.5232 0.318499 74.0051 0.440607 72.554 0.852856C71.1029 1.2651 69.7471 1.95942 68.5641 2.89613C67.3812 3.83285 66.3942 4.99362 65.6596 6.31213C64.9251 7.63064 64.4572 9.08105 64.2829 10.5805L63.1875 19.925L233.542 39.7719Z" fill="#1074D2"/>
<path d="M80.6251 13.4887C80.5562 14.0974 80.3084 14.6718 79.913 15.1394C79.5177 15.6069 78.9925 15.9465 78.4041 16.1152C77.8157 16.2838 77.1906 16.2739 76.6078 16.0867C76.0251 15.8995 75.5109 15.5434 75.1306 15.0635C74.7502 14.5837 74.5207 14.0017 74.4711 13.3912C74.4215 12.7807 74.5541 12.1692 74.8521 11.6342C75.1501 11.0992 75.6 10.6647 76.1449 10.3858C76.6898 10.1069 77.3052 9.9961 77.9131 10.0675C78.7254 10.1628 79.4668 10.5764 79.9751 11.2176C80.4834 11.8588 80.7171 12.6755 80.6251 13.4887Z" fill="white"/>
<path d="M95.4139 15.2225C95.3417 15.8281 95.0917 16.3987 94.6956 16.8622C94.2995 17.3257 93.7749 17.6613 93.1883 17.8267C92.6017 17.992 91.9792 17.9796 91.3996 17.7911C90.82 17.6025 90.3092 17.2463 89.9318 16.7674C89.5544 16.2885 89.3273 15.7084 89.2792 15.1004C89.231 14.4924 89.3641 13.8838 89.6614 13.3514C89.9588 12.819 90.4072 12.3868 90.9499 12.1093C91.4926 11.8318 92.1054 11.7215 92.7107 11.7924C93.1135 11.8395 93.503 11.9657 93.8569 12.1637C94.2109 12.3617 94.5223 12.6276 94.7734 12.9462C95.0245 13.2649 95.2103 13.6299 95.3202 14.0205C95.4301 14.4111 95.462 14.8196 95.4139 15.2225Z" fill="#AADEFE"/>
<path d="M110.751 17.0072C110.681 17.6131 110.432 18.1846 110.038 18.6494C109.643 19.1142 109.119 19.4514 108.533 19.6186C107.947 19.7857 107.324 19.7751 106.744 19.5883C106.164 19.4014 105.652 19.0466 105.273 18.5687C104.894 18.0908 104.666 17.5113 104.616 16.9033C104.566 16.2954 104.697 15.6863 104.993 15.153C105.289 14.6198 105.737 14.1863 106.279 13.9074C106.821 13.6284 107.433 13.5166 108.039 13.5859C108.851 13.6813 109.593 14.0948 110.101 14.736C110.609 15.3773 110.843 16.1939 110.751 17.0072Z" fill="white"/>
<path d="M226.05 106.52L237.118 106.52L236.459 149.864L225.39 149.864L181.906 136.624L195.301 127.489L141.103 82.4874L106.93 82.4874L49.6016 4.16324L74.9244 4.18517L114.348 63.5152L147.973 63.5152L211.194 116.651L226.05 106.52Z" fill="#E74C3C"/>
<path d="M225.618 106.52L224.959 149.864L181.475 136.624L194.871 127.489L140.673 82.4874L106.498 82.4874L49.1699 4.16324L70.8257 4.18517L113.916 63.5152L147.541 63.5152L210.762 116.651L225.618 106.52Z" fill="#FC6A5A"/>
<path d="M70.6777 62.6432C68.2309 62.0909 65.976 60.8946 64.1463 59.1783C67.1804 56.8673 69.2528 53.5153 69.9645 49.7674C70.6762 46.0196 69.977 42.1409 68.0013 38.8779C66.0257 35.6148 62.9133 33.1982 59.2634 32.0932C55.6134 30.9881 51.6838 31.2728 48.2311 32.8923C44.7783 34.5118 42.0465 37.3518 40.5613 40.8655C39.0762 44.3792 38.9428 48.3182 40.1868 51.9244C41.4308 55.5306 43.9643 58.549 47.2996 60.3986C50.6349 62.2481 54.5362 62.7982 58.2526 61.9427C62.1887 63.6065 66.5796 63.854 70.6777 62.6432Z" fill="#F6554D"/>
<path d="M58.1294 36.3718L56.1194 50.5918H51.6194L53.6294 36.3718H58.1294ZM50.4794 55.0318C50.6894 53.5018 52.0994 52.2718 53.6294 52.2718C55.1594 52.2718 56.2094 53.5018 55.9994 55.0318C55.7894 56.5618 54.3794 57.7918 52.8494 57.7918C51.3194 57.7918 50.2694 56.5618 50.4794 55.0318Z" fill="white"/>
<path d="M68.2527 52.9927C68.3114 52.9927 68.3678 53.016 68.4093 53.0576C68.4508 53.0991 68.4741 53.1555 68.4741 53.2143C68.4741 53.2731 68.4508 53.3294 68.4093 53.371C68.3678 53.4126 68.3114 53.4359 68.2527 53.4359C68.194 53.4359 68.1376 53.4126 68.0961 53.371C68.0546 53.3294 68.0312 53.2731 68.0313 53.2143C68.0312 53.1555 68.0546 53.0991 68.0961 53.0576C68.1376 53.016 68.194 52.9927 68.2527 52.9927Z" fill="white"/>
<path d="M69.4714 52.9927C69.5302 52.9927 69.5865 53.016 69.628 53.0576C69.6696 53.0991 69.6929 53.1555 69.6929 53.2143C69.6929 53.2731 69.6696 53.3294 69.628 53.371C69.5865 53.4126 69.5302 53.4359 69.4714 53.4359C69.4127 53.4359 69.3564 53.4126 69.3149 53.371C69.2733 53.3294 69.25 53.2731 69.25 53.2143C69.25 53.1555 69.2733 53.0991 69.3149 53.0576C69.3564 53.016 69.4127 52.9927 69.4714 52.9927Z" fill="white"/>
<path d="M74.611 97.9521C73.6527 102.554 73.2162 107.249 73.31 111.948C73.5453 118.285 72.791 159.947 72.791 159.947H77.8774C77.8774 159.947 85.1159 127.322 85.3858 124.746C85.6556 122.17 89.3164 96.4077 89.3164 96.4077L74.611 97.9521Z" fill="#02519B"/>
<path d="M77.9961 96.0532C77.9961 96.0532 79.1656 104.952 81.1517 111.289C83.1378 117.626 92.916 159.96 92.916 159.96H98.0024C98.0024 159.96 97.0681 127.335 96.7152 124.759C96.3623 122.182 93.788 96.4134 93.788 96.4134L77.9961 96.0532Z" fill="#005DB5"/>
<path d="M93.3379 159.946V163.498H103.026C103.146 163.499 103.262 163.461 103.358 163.389C103.454 163.318 103.524 163.218 103.559 163.103C103.593 162.989 103.589 162.866 103.548 162.754C103.507 162.642 103.431 162.546 103.331 162.48C101.947 161.539 99.6491 160.237 97.5384 159.946H93.3379Z" fill="#00284E"/>
<path d="M73.0488 159.946V163.498H82.7371C82.8571 163.5 82.9746 163.463 83.0717 163.393C83.1688 163.322 83.2403 163.222 83.2755 163.107C83.3106 162.992 83.3075 162.869 83.2665 162.756C83.2256 162.643 83.1491 162.546 83.0485 162.48C81.6299 161.539 79.36 160.237 77.2563 159.946H73.0488Z" fill="#00284E"/>
<path d="M90.5146 54.6467C90.5146 54.6467 93.8432 49.5843 90.0233 49.1065C87.0891 48.7256 85.8712 49.5982 85.8712 49.5982C85.8712 49.5982 82.4941 49.2312 80.6464 50.8309C79.38 51.932 74.7227 60.4571 82.245 63.5388C89.7672 66.6206 88.1687 58.6911 88.1687 58.6911L90.5146 54.6467Z" fill="#023E78"/>
<path d="M90.0096 49.0928C87.0754 48.7119 85.8575 49.5845 85.8575 49.5845C85.8575 49.5845 82.4804 49.2175 80.6328 50.8172C79.3664 51.9183 74.7091 60.4434 82.2313 63.5251C85.7675 64.9794 87.29 64.003 87.9059 62.5556C80.7712 64.5708 79.9961 55.9627 81.1725 53.5112C82.349 51.0596 85.2347 52.1746 85.2347 52.1746C86.3627 49.3421 90.0165 49.6538 91.5251 49.8685C91.3416 49.6393 91.1117 49.4518 90.8505 49.3181C90.5892 49.1844 90.3026 49.1076 90.0096 49.0928Z" fill="#023E78"/>
<path d="M85.857 57.1131C85.857 57.1131 84.8744 56.1228 84.1339 57.1131C83.3934 58.1034 83.8848 60.3195 85.1166 60.4442C85.1166 60.4442 84.7498 63.6506 82.2793 63.5259V66.1229H88.0784V64.163C88.0784 64.163 91.6562 62.6879 91.5385 59.7239C91.4787 57.9969 91.1447 56.2904 90.5489 54.6685C89.3035 55.9873 87.6509 56.8484 85.857 57.1131Z" fill="#FFC89F"/>
<path d="M86.7163 64.9725C87.2907 65.2149 87.1938 65.575 87.2146 66.1221H88.0519V64.1623C88.0519 64.1623 86.6679 64.6124 84.5918 63.4697C85.2249 64.0693 85.9403 64.5753 86.7163 64.9725Z" fill="#FFB27F"/>
<path d="M87.9318 52.3899C87.9318 52.3899 84.9284 51.1918 84.5755 52.0921C84.3471 52.6807 84.9284 53.1863 85.7312 53.6987L85.0391 53.8095C85.0028 53.8145 84.9687 53.8301 84.9411 53.8544C84.9135 53.8786 84.8937 53.9105 84.8841 53.9459C84.8745 53.9814 84.8756 54.0189 84.8871 54.0538C84.8987 54.0886 84.9203 54.1193 84.9492 54.142C85.5407 54.3931 86.184 54.4976 86.8245 54.4467L87.9318 52.3899Z" fill="#FFC89F"/>
<path d="M109.386 59.9181C103.663 55.6729 88.0161 52.3003 88.0161 52.3003L86.729 54.6549C86.729 54.6549 100.929 60.1951 99.9881 60.9846C99.4414 61.4694 92.5004 64.6481 90.1476 65.7215C89.6412 65.95 89.0905 66.0635 88.5352 66.0539L81.3451 66.0124C79.59 65.9269 77.839 66.2502 76.2299 66.9568C74.6208 67.6634 73.1975 68.734 72.072 70.0844C68.4251 74.2881 62.2246 84.0181 62.2246 84.0181L72.6741 99.3923L73.8298 101.089V101.214L74.8609 101.318C78.2172 101.629 88.9781 102.481 94.6734 101.269L94.8325 101.234L94.5626 76.0125C100.066 71.7147 105.093 66.8392 109.559 61.4694C109.655 61.3588 109.727 61.2293 109.771 61.0892C109.815 60.9492 109.829 60.8015 109.813 60.6557C109.796 60.5099 109.75 60.369 109.677 60.242C109.603 60.1151 109.504 60.0048 109.386 59.9181ZM74.3003 94.3161L73.2761 92.0861L70.0306 84.9877L75.4214 78.9488L74.4526 92.1969L74.3003 94.3161Z" fill="#24A3F2"/>
<path d="M73.2773 92.0859L74.3015 94.3159L73.8032 101.04L73.7963 101.061L72.6406 99.3644L73.2773 92.0859Z" fill="#FFC89F"/>
<g style="mix-blend-mode:multiply" opacity="0.29">
<path d="M92.0859 75.0767C91.1171 75.7693 91.3939 82.002 91.124 85.9148C90.7227 92.4454 90.3351 98.0964 90.6189 101.746C91.9648 101.673 93.3038 101.504 94.6256 101.24L94.7848 101.206L94.5149 75.9839C100.018 71.6861 105.046 66.8106 109.511 61.4408C109.606 61.3303 109.678 61.2014 109.721 61.062C109.764 60.9226 109.778 60.7758 109.761 60.6309C109.745 60.4859 109.699 60.3458 109.626 60.2195C109.553 60.0931 109.455 59.9831 109.338 59.8965C104.052 65.4624 98.2785 70.5429 92.0859 75.0767Z" fill="#1074D2"/>
</g>
<path d="M96.7226 124.752C96.4665 122.889 95.0548 108.955 94.2936 101.337L90.6328 101.746C90.6328 101.746 95.9683 145.604 96.3143 159.953H98.0097C98.0097 159.953 97.0755 127.328 96.7226 124.752Z" fill="#02519B"/>
<path d="M216.577 89.9663L216.592 89.9858C219.223 93.4247 222.263 96.553 225.642 99.2583V99.0776L226.475 99.9136C227.01 100.323 227.556 100.719 228.107 101.107C228.485 100.979 228.87 100.843 229.263 100.693C230.35 100.276 231.482 99.7623 232.624 99.1646C234.687 98.0834 236.783 96.7075 238.852 95.0718C240.698 93.6138 242.526 91.9412 244.286 90.0991V90.0981C246.037 88.2681 247.659 86.3145 249.108 84.2974C250.666 82.1249 251.994 79.8854 253.056 77.6401V77.6392C254.185 75.2508 254.971 72.8651 255.396 70.5503L255.515 69.8325C255.532 69.7148 255.546 69.5963 255.562 69.478C253.662 68.6905 251.762 67.9034 249.862 67.1157C247.844 66.279 245.825 65.4416 243.808 64.605C239.53 62.8347 235.255 61.0607 230.978 59.2876L230.979 59.3032V59.3228C231.005 60.3431 230.908 61.3819 230.686 62.4116L230.688 62.4126C230.417 63.6163 229.975 64.8248 229.376 66.0093L229.374 66.0112L229.347 66.0659L229.345 66.0679C228.568 67.5625 227.53 69.0382 226.268 70.438L226.267 70.437C226.252 70.4537 226.238 70.4694 226.224 70.4839L225.62 71.1187C224.187 72.5753 222.584 73.8665 220.834 74.978L220.831 74.98C219.964 75.5221 219.076 76.0095 218.193 76.4282C217.3 76.8526 216.328 77.2306 215.306 77.5522L215.302 77.5532C213.789 78.0158 212.415 78.2773 211.107 78.3472L210.468 78.6675V78.3579C210.301 78.3559 210.136 78.3505 209.973 78.3413C210.04 78.5173 210.11 78.6926 210.18 78.8677H210.181C211.786 82.835 213.981 86.5553 216.574 89.9634M216.577 89.9663C216.576 89.9652 216.575 89.9644 216.574 89.9634M216.577 89.9663L216.459 90.0552M216.577 89.9663C216.578 89.9672 216.578 89.9683 216.579 89.9692L216.407 90.0972L216.459 90.0552M216.577 89.9663C216.576 89.9653 216.575 89.9644 216.574 89.9634M216.577 89.9663L216.459 90.0552M216.574 89.9634L216.459 90.0552M226.465 99.9058L226.467 99.9077L226.473 99.9126L226.468 99.9077C226.467 99.907 226.466 99.9065 226.465 99.9058ZM226.465 99.9058L226.463 99.9048C226.461 99.9035 226.46 99.9021 226.458 99.9009C226.46 99.9027 226.463 99.9042 226.465 99.9058ZM211.038 78.356C211.032 78.3572 211.026 78.3573 211.022 78.3579L211.037 78.356C211.038 78.3557 211.04 78.3544 211.042 78.354C211.04 78.3544 211.039 78.3558 211.038 78.356Z" fill="white" stroke="#1074D2"/>
<path d="M216.194 90.2899C216.191 90.2852 216.187 90.2806 216.184 90.2759C216.187 90.281 216.191 90.2862 216.194 90.2899Z" fill="white"/>
<path d="M229.259 69.7819C229.139 69.9852 229.203 70.283 229.42 70.3952L241.448 76.672C241.665 76.7859 241.933 76.7298 242.061 76.5109C242.181 76.3077 242.117 76.0098 241.9 75.8977L229.872 69.6209C229.799 69.5823 229.719 69.5635 229.642 69.5635C229.49 69.5635 229.344 69.637 229.259 69.7819Z" fill="#323B7E"/>
<path d="M225.819 74.4784C225.697 74.6888 225.77 74.9674 225.98 75.0917C229.481 77.1485 232.983 79.2049 236.483 81.2617C236.49 81.2657 236.497 81.2702 236.503 81.2738C236.51 81.2774 236.515 81.281 236.522 81.2846C236.733 81.4088 237.013 81.3335 237.136 81.1235C237.258 80.9131 237.185 80.6346 236.974 80.5098C236.969 80.5067 236.965 80.5045 236.96 80.5013C236.959 80.5009 236.958 80.5 236.957 80.4995C236.954 80.4973 236.951 80.4959 236.948 80.4941C233.443 78.4351 229.939 76.376 226.432 74.3174C226.363 74.2761 226.287 74.2568 226.21 74.2568C226.055 74.2568 225.902 74.3371 225.819 74.4784Z" fill="#323B7E"/>
<path d="M221.265 77.4698C221.153 77.5012 221.055 77.5765 220.997 77.6766C220.936 77.7797 220.92 77.9062 220.952 78.0215C220.985 78.1445 221.06 78.218 221.158 78.2898C224.847 81.0061 228.536 83.7223 232.226 86.4381C232.317 86.5068 232.466 86.5117 232.571 86.4839C232.683 86.452 232.781 86.3767 232.839 86.2771C232.9 86.1735 232.917 86.0474 232.885 85.9317C232.851 85.8092 232.776 85.7356 232.678 85.6638C232.627 85.6253 232.576 85.5885 232.524 85.5499C232.52 85.5468 232.517 85.5445 232.513 85.5418C228.88 82.8664 225.245 80.1905 221.611 77.5155C221.553 77.4716 221.471 77.4536 221.392 77.4536C221.347 77.4536 221.303 77.4599 221.265 77.4698Z" fill="#323B7E"/>
<path d="M216.775 80.1594C216.601 80.3312 216.601 80.6219 216.775 80.7937L226.942 90.8661C227.115 91.0379 227.402 91.0397 227.576 90.8661C227.75 90.6943 227.75 90.4036 227.576 90.2318C227.562 90.2179 227.55 90.204 227.536 90.1896C227.528 90.1816 227.519 90.1739 227.51 90.1663C224.143 86.8305 220.776 83.4952 217.409 80.1594C217.322 80.0733 217.207 80.0298 217.091 80.0298C216.976 80.0298 216.861 80.0729 216.775 80.1594Z" fill="#323B7E"/>
<path d="M245.642 77.9023C245.476 77.9023 245.333 77.9844 245.25 78.1271C245.188 78.2339 245.173 78.3662 245.208 78.49C245.242 78.6084 245.316 78.7013 245.416 78.752L246.642 79.3935L248.514 80.3678C248.585 80.406 248.665 80.4257 248.747 80.4257C248.911 80.4257 249.057 80.3432 249.138 80.2045C249.2 80.1 249.216 79.9641 249.181 79.8403C249.146 79.7219 249.073 79.629 248.973 79.5779L247.746 78.9368L245.875 77.9625C245.804 77.923 245.723 77.9023 245.642 77.9023Z" fill="#FC6A5A"/>
<path d="M241.897 83.4639C241.735 83.4639 241.583 83.55 241.499 83.6886C241.373 83.9071 241.447 84.1884 241.663 84.3149L242.551 84.8366L244.625 86.055C244.714 86.1066 244.791 86.1294 244.876 86.1294C245.041 86.1294 245.194 86.0433 245.274 85.9047C245.317 85.8343 245.338 85.7522 245.337 85.6674C245.331 85.5041 245.246 85.3587 245.11 85.278L242.996 84.0376L242.125 83.5258C242.057 83.4854 241.978 83.4639 241.897 83.4639Z" fill="#FC6A5A"/>
<path d="M230.631 93.4331C230.506 93.4331 230.391 93.4802 230.307 93.5659C230.222 93.6525 230.174 93.7713 230.176 93.8916C230.176 94.0145 230.222 94.1289 230.307 94.2137L233.063 96.942L233.104 96.9824C233.207 97.0847 233.321 97.134 233.45 97.134C233.574 97.134 233.688 97.0878 233.772 97.003C233.857 96.9165 233.905 96.7976 233.904 96.6774C233.904 96.5545 233.857 96.4401 233.772 96.3557L233.711 96.2943L231.86 94.4631L230.955 93.5659C230.867 93.4816 230.749 93.4331 230.631 93.4331Z" fill="#FC6A5A"/>
<path d="M236.751 88.7505C236.709 88.7505 236.666 88.7563 236.623 88.7684C236.507 88.8003 236.408 88.877 236.349 88.9788C236.287 89.0838 236.271 89.2121 236.304 89.331C236.337 89.453 236.41 89.5279 236.51 89.6033L238.75 91.2523L239.699 91.9512L239.739 91.9741L239.736 91.9777L239.831 92.0477L239.891 92.0916C239.948 92.1329 240.028 92.1553 240.116 92.1553C240.157 92.1553 240.2 92.1495 240.245 92.1378C240.36 92.106 240.46 92.0293 240.518 91.9275C240.58 91.822 240.597 91.6937 240.563 91.5749C240.53 91.4528 240.457 91.3779 240.357 91.3026L238.664 90.0568L236.976 88.8146C236.9 88.7595 236.802 88.7505 236.751 88.7505Z" fill="#FC6A5A"/>
<path d="M231.932 65.8218C231.748 65.8218 231.541 65.8729 231.378 65.959C231.117 66.0954 230.916 66.3323 230.827 66.6082C230.73 66.8948 230.756 67.2142 230.897 67.4843C231.04 67.7579 231.251 67.8979 231.546 68.0347L240.666 72.2946L249.786 76.5527L249.99 76.6473L250.195 76.742C250.31 76.7981 250.42 76.8232 250.55 76.8232C250.734 76.8232 250.94 76.7725 251.103 76.6877C251.364 76.5509 251.565 76.3145 251.653 76.0386C251.75 75.7519 251.724 75.433 251.583 75.1625C251.441 74.8888 251.23 74.7489 250.934 74.6121L250.875 74.5874L236.129 67.6974L236.012 67.6431L234.489 66.9316L232.255 65.8886C232.164 65.8442 232.055 65.8218 231.932 65.8218Z" fill="#FC6A5A"/>
<path d="M234.311 66.1453L235.738 62.9556L236.313 63.2128L234.885 66.4026L234.311 66.1453Z" fill="#FC6A5A"/>
<path d="M235.379 66.6235L236.806 63.4337L237.212 63.6152L237.174 65.7816L237.988 63.9623L238.468 64.1773L237.041 67.367L236.655 67.1943L236.728 64.9395L235.875 66.8455L235.379 66.6235Z" fill="#FC6A5A"/>
<path d="M238.013 67.8021L238.799 64.3251L239.315 64.5559L238.726 67.0009L240.13 64.9206L240.657 65.1567L238.588 68.0593L238.013 67.8021Z" fill="#FC6A5A"/>
<path d="M240.376 68.911C240.15 68.8099 239.989 68.6875 239.893 68.5436C239.796 68.3997 239.755 68.236 239.767 68.0527C239.78 67.8693 239.834 67.67 239.931 67.4547L240.465 66.2615C240.561 66.0462 240.672 65.8754 240.798 65.7489C240.925 65.6199 241.074 65.5446 241.244 65.5231C241.414 65.5017 241.612 65.5414 241.838 65.6424C242.069 65.7458 242.232 65.8676 242.327 66.0077C242.424 66.149 242.467 66.31 242.456 66.4907C242.448 66.67 242.396 66.8673 242.3 67.0825L241.764 68.2797C241.669 68.4923 241.556 68.6639 241.425 68.7944C241.298 68.9235 241.148 69.0014 240.976 69.0281C240.807 69.0534 240.607 69.0143 240.376 68.911ZM240.568 68.4817C240.665 68.5252 240.745 68.5359 240.809 68.5139C240.875 68.493 240.932 68.4493 240.981 68.3829C241.029 68.3164 241.073 68.2399 241.112 68.1532L241.769 66.6844C241.809 66.5951 241.837 66.5115 241.853 66.4336C241.869 66.3556 241.862 66.2864 241.832 66.2259C241.806 66.1639 241.745 66.1112 241.648 66.0677C241.556 66.0266 241.477 66.0165 241.411 66.0374C241.346 66.0556 241.29 66.0966 241.242 66.1605C241.195 66.2243 241.151 66.3009 241.111 66.3901L240.454 67.859C240.415 67.9456 240.386 68.0286 240.366 68.108C240.349 68.1886 240.355 68.2604 240.383 68.3236C240.412 68.3867 240.473 68.4394 240.568 68.4817Z" fill="#FC6A5A"/>
<path d="M241.763 69.4799L243.191 66.2901L243.766 66.5473L242.338 69.7371L241.763 69.4799Z" fill="#FC6A5A"/>
<path d="M243.671 70.3854C243.438 70.2809 243.274 70.1527 243.182 70.0009C243.091 69.8503 243.055 69.6845 243.073 69.5035C243.093 69.3199 243.148 69.1244 243.241 68.917L243.75 67.7789C243.848 67.561 243.959 67.3837 244.083 67.2471C244.207 67.1104 244.354 67.0281 244.524 67.0002C244.697 66.9735 244.9 67.0124 245.134 67.1169C245.354 67.2156 245.509 67.3306 245.598 67.4619C245.692 67.5918 245.733 67.7381 245.724 67.9007C245.714 68.0634 245.668 68.2366 245.586 68.4203L245.466 68.6881L244.907 68.4379L245.03 68.1623C245.07 68.073 245.101 67.9893 245.123 67.9111C245.148 67.834 245.149 67.7651 245.126 67.7043C245.107 67.6421 245.047 67.5886 244.947 67.544C244.848 67.4994 244.763 67.4901 244.695 67.5162C244.63 67.5409 244.574 67.5896 244.526 67.6625C244.478 67.7328 244.433 67.8165 244.39 67.9136L243.769 69.2998C243.718 69.4153 243.684 69.5152 243.668 69.5996C243.654 69.6813 243.661 69.7525 243.691 69.813C243.725 69.8721 243.783 69.9204 243.867 69.958C243.964 70.0014 244.043 70.0097 244.102 69.9826C244.165 69.9542 244.219 69.9042 244.264 69.8328C244.308 69.7614 244.352 69.6784 244.394 69.5839L244.522 69.2964L245.082 69.5466L244.967 69.8026C244.883 69.9916 244.782 70.1484 244.667 70.2731C244.552 70.3952 244.413 70.4701 244.25 70.4977C244.09 70.5239 243.897 70.4865 243.671 70.3854Z" fill="#FC6A5A"/>
<path d="M244.959 70.9095L246.386 67.7198L247.725 68.3188L247.542 68.7284L246.786 68.3901L246.375 69.3076L246.97 69.5737L246.788 69.9793L246.194 69.7132L245.721 70.7686L246.485 71.1104L246.306 71.5121L244.959 70.9095Z" fill="#FC6A5A"/>
<path d="M138.549 133.157H138.548L133.996 133.183L129.427 133.209C125.49 133.232 121.552 133.255 117.615 133.278C113.862 133.299 110.108 133.32 106.354 133.342C106.301 133.343 106.252 133.369 106.219 133.413C106.158 133.441 106.119 133.501 106.122 133.563C106.184 134.534 106.116 135.52 106.05 136.474C106.03 136.771 106.009 137.067 105.993 137.363L105.085 137.366L103.694 137.373C103.602 137.374 103.528 137.448 103.528 137.539C103.528 137.557 103.532 137.576 103.538 137.594C103.521 137.637 103.525 137.69 103.548 137.738C103.597 137.838 103.643 137.941 103.687 138.043L103.686 138.041C103.838 138.409 103.969 138.811 104.086 139.268C104.201 139.718 104.294 140.202 104.363 140.706L104.367 140.732C104.435 141.259 104.473 141.77 104.481 142.264C104.49 142.786 104.465 143.263 104.404 143.722L104.414 143.679C104.369 143.979 104.315 144.245 104.245 144.493C104.233 144.533 104.238 144.576 104.259 144.615C104.272 144.695 104.342 144.756 104.423 144.756L104.873 144.753C105.175 144.751 105.476 144.749 105.778 144.748C105.782 145.428 105.843 146.12 105.903 146.789C105.932 147.122 105.962 147.454 105.985 147.788L105.219 147.79L104.45 147.795C104.359 147.795 104.284 147.869 104.284 147.96C104.284 147.969 104.285 147.977 104.286 147.986C104.284 147.993 104.283 148.001 104.282 148.008C104.164 148.841 104.113 149.715 104.132 150.608C104.152 151.509 104.245 152.397 104.406 153.245C104.413 153.282 104.434 153.316 104.465 153.342C104.476 153.422 104.546 153.482 104.626 153.482L106.143 153.474L107.659 153.465C107.748 154.068 107.811 154.697 107.85 155.384L107.852 155.407C107.909 156.532 107.889 157.645 107.793 158.722H107.726C107.418 158.722 107.113 158.724 106.808 158.726C106.737 158.726 106.672 158.774 106.65 158.842C106.634 158.853 106.62 158.867 106.61 158.882C106.586 158.917 106.578 158.954 106.583 159.008C106.621 159.399 106.651 159.791 106.671 160.172L106.674 160.151C106.723 161.158 106.711 162.135 106.636 163.057C106.635 163.084 106.639 163.11 106.65 163.133C106.642 163.149 106.638 163.169 106.638 163.19C106.638 163.28 106.714 163.356 106.804 163.356C110.451 163.335 114.098 163.313 117.745 163.293C121.59 163.27 125.435 163.248 129.28 163.226L133.345 163.202L137.41 163.179C137.499 163.179 137.571 163.11 137.576 163.022C137.615 162.965 137.614 162.92 137.609 162.882C137.594 162.761 137.583 162.641 137.572 162.52C137.475 161.241 137.615 159.967 137.768 158.772C137.777 158.698 137.723 158.635 137.664 158.611C137.634 158.572 137.588 158.549 137.539 158.549C137.157 158.552 136.776 158.554 136.395 158.555C136.357 158.174 136.323 157.792 136.288 157.408C136.229 156.741 136.167 156.05 136.136 155.369C136.102 154.556 136.113 153.896 136.17 153.299C136.527 153.299 136.886 153.296 137.245 153.294C137.307 153.294 137.364 153.26 137.392 153.204C137.424 153.176 137.436 153.141 137.446 153.097C137.583 152.397 137.629 151.616 137.591 150.638C137.575 150.24 137.545 149.823 137.502 149.4C137.453 148.924 137.374 148.467 137.268 148.042C137.25 147.971 137.196 147.919 137.13 147.909C137.103 147.89 137.071 147.88 137.039 147.88L136.217 147.885L135.396 147.89C135.385 147.821 135.373 147.752 135.363 147.681C135.264 146.896 135.356 146.099 135.445 145.328C135.466 145.14 135.488 144.952 135.507 144.764L136.455 144.76L137.399 144.754C137.466 144.754 137.526 144.713 137.552 144.651C137.581 144.63 137.601 144.6 137.609 144.566C137.841 143.525 137.952 142.367 137.949 141.023C137.947 139.878 137.857 138.714 137.681 137.565L138.219 137.565L138.757 137.562C138.833 137.561 138.901 137.506 138.918 137.431C138.937 137.395 138.943 137.352 138.933 137.31C138.881 137.071 138.837 136.821 138.801 136.566C138.653 135.427 138.712 134.283 138.78 133.414C138.785 133.362 138.757 133.31 138.707 133.277C138.687 133.206 138.622 133.157 138.549 133.157Z" fill="#E2EDFF"/>
<path d="M127.527 134.846C125.395 134.858 123.263 134.87 121.131 134.883C122.751 135.017 124.374 135.134 125.995 135.26C128.788 135.478 131.582 135.727 134.351 136.162C134.331 135.721 134.354 135.279 134.317 134.839C134.317 134.844 134.318 134.848 134.318 134.853C134.316 134.838 134.315 134.822 134.313 134.807C132.051 134.819 129.789 134.833 127.527 134.846Z" fill="#1074D2"/>
<path d="M133.299 153.389C130.668 153.404 128.036 153.42 125.405 153.435C123.329 153.447 121.252 153.46 119.175 153.471H119.172H119.171C119.17 153.478 119.17 153.485 119.17 153.493L122.472 153.651C125.185 153.78 127.898 153.911 130.611 154.041C132.448 154.128 134.284 154.216 136.12 154.304C136.125 153.981 136.139 153.684 136.163 153.401C136.113 153.397 136.062 153.392 136.011 153.386C136.003 153.385 135.995 153.381 135.988 153.375C135.092 153.379 134.196 153.384 133.299 153.389Z" fill="#1074D2"/>
<path d="M132.528 141.093C131.837 141.144 131.145 141.192 130.453 141.226C129.776 141.261 129.099 141.287 128.422 141.319C127.11 141.382 125.796 141.466 124.498 141.676C126.526 141.663 128.554 141.652 130.581 141.641C133.036 141.626 135.491 141.613 137.945 141.598C137.95 141.41 137.951 141.219 137.951 141.023C137.951 140.889 137.95 140.753 137.947 140.618C136.142 140.794 134.337 140.958 132.528 141.093Z" fill="#1074D2"/>
<path d="M133.17 149.976C131.16 149.987 129.152 150 127.143 150.011C128.26 150.119 129.379 150.206 130.499 150.28C132.863 150.436 135.23 150.541 137.595 150.687C137.594 150.671 137.594 150.654 137.593 150.638C137.584 150.411 137.57 150.181 137.553 149.951C136.093 149.959 134.631 149.968 133.17 149.976Z" fill="#1074D2"/>
<path d="M131.508 155.728C133.067 155.876 134.624 156.045 136.186 156.158C136.175 156.006 136.165 155.854 136.156 155.701C134.606 155.71 133.057 155.719 131.508 155.728Z" fill="#1074D2"/>
<path d="M122.237 158.679C119.614 158.694 116.99 158.709 114.366 158.724C112.155 158.738 109.944 158.75 107.732 158.763H107.726H107.69H107.686H107.665C107.368 158.765 107.07 158.767 106.772 158.768H106.767H106.689C106.669 158.788 106.653 158.812 106.644 158.84C106.63 158.848 106.615 158.863 106.604 158.881C106.58 158.914 106.571 158.953 106.575 159.007C106.592 159.178 106.607 159.349 106.62 159.519C108.116 159.457 109.612 159.395 111.108 159.334C114.072 159.212 117.036 159.092 119.999 158.969C122.618 158.861 125.238 158.754 127.859 158.647C125.984 158.657 124.111 158.668 122.237 158.679Z" fill="#1074D2"/>
<path d="M134.2 137.68C131.591 137.695 128.981 137.71 126.371 137.725C124.336 137.737 122.302 137.748 120.268 137.76C121.686 137.855 123.105 137.95 124.524 138.045C127.168 138.222 129.813 138.399 132.456 138.576C133.795 138.666 135.133 138.755 136.472 138.845C136.932 138.875 137.392 138.907 137.852 138.938C137.813 138.511 137.762 138.084 137.698 137.66C136.532 137.667 135.366 137.673 134.2 137.68Z" fill="#1074D2"/>
<path d="M131.761 144.668C128.998 144.683 126.235 144.7 123.472 144.716C120.219 144.735 116.967 144.753 113.714 144.772C111.069 144.787 108.423 144.803 105.777 144.817C105.78 145.326 105.816 145.84 105.859 146.344C107.843 146.218 109.827 146.092 111.811 145.965C115.394 145.737 118.976 145.51 122.559 145.283C125.803 145.077 129.047 144.871 132.291 144.665C132.115 144.666 131.938 144.667 131.761 144.668Z" fill="#1074D2"/>
<path d="M68.1445 140.491H68.1439L64.8922 140.51L61.629 140.528C58.8164 140.544 56.0038 140.561 53.1912 140.577C50.5105 140.592 47.8296 140.607 45.1483 140.623C45.11 140.624 45.0749 140.642 45.0517 140.674C45.0081 140.694 44.9798 140.737 44.9822 140.781C45.0263 141.474 44.9778 142.179 44.931 142.86C44.9164 143.072 44.9017 143.284 44.8898 143.495L44.2414 143.497L43.2477 143.503C43.1825 143.503 43.1296 143.556 43.1296 143.621C43.1296 143.634 43.1319 143.648 43.1364 143.66C43.1243 143.691 43.1269 143.729 43.1436 143.763C43.1789 143.835 43.2117 143.908 43.2427 143.981L43.2421 143.979C43.3509 144.243 43.4444 144.53 43.5276 144.856C43.6098 145.178 43.6763 145.523 43.7256 145.883L43.7284 145.902C43.777 146.278 43.8042 146.643 43.8101 146.996C43.8166 147.369 43.7986 147.709 43.7554 148.037L43.7622 148.007C43.7298 148.221 43.6913 148.411 43.6413 148.588C43.6329 148.617 43.6367 148.648 43.6518 148.675C43.6605 148.732 43.7107 148.776 43.7686 148.776L44.0904 148.774C44.3058 148.772 44.5211 148.771 44.7365 148.77C44.7393 149.256 44.7832 149.75 44.8255 150.228C44.8467 150.466 44.8677 150.703 44.8843 150.941L44.3369 150.943L43.7879 150.946C43.7227 150.946 43.6696 150.999 43.6696 151.065C43.6696 151.071 43.6703 151.077 43.6709 151.083C43.6696 151.088 43.6686 151.094 43.6679 151.099C43.5833 151.694 43.5472 152.318 43.5609 152.956C43.5752 153.6 43.6412 154.234 43.7566 154.839C43.7613 154.866 43.7762 154.891 43.7984 154.909C43.8067 154.966 43.8565 155.009 43.9139 155.009L44.9974 155.003L46.0799 154.997C46.1436 155.428 46.1889 155.876 46.2167 156.367L46.2178 156.384C46.2587 157.187 46.2446 157.982 46.1761 158.752H46.1276C45.9078 158.752 45.6901 158.753 45.4721 158.755C45.4217 158.755 45.3754 158.789 45.3597 158.837C45.3478 158.845 45.338 158.855 45.3306 158.866C45.3138 158.891 45.308 158.917 45.3114 158.956C45.3385 159.235 45.3598 159.515 45.3746 159.788L45.3768 159.772C45.4113 160.492 45.4032 161.19 45.3497 161.848C45.3485 161.867 45.3517 161.886 45.359 161.903C45.3536 161.914 45.351 161.928 45.351 161.943C45.351 162.007 45.4052 162.062 45.4693 162.062C48.0741 162.046 50.6795 162.031 53.2843 162.017C56.0307 162 58.777 161.984 61.524 161.969L64.4273 161.952L67.331 161.935C67.394 161.935 67.446 161.886 67.4491 161.823C67.4771 161.782 67.4763 161.75 67.4729 161.723C67.4625 161.637 67.4541 161.551 67.4467 161.464C67.3771 160.551 67.4775 159.641 67.5864 158.788C67.5928 158.734 67.5541 158.689 67.5125 158.672C67.4908 158.645 67.4578 158.628 67.4226 158.628C67.1501 158.63 66.8776 158.631 66.6057 158.633C66.5785 158.36 66.5541 158.087 66.5296 157.813C66.4872 157.336 66.4432 156.843 66.4211 156.357C66.3967 155.776 66.4043 155.305 66.4453 154.878C66.7003 154.878 66.9566 154.876 67.2131 154.875C67.2575 154.875 67.2977 154.85 67.3183 154.81C67.3408 154.79 67.3497 154.765 67.3562 154.734C67.4545 154.234 67.4875 153.676 67.4601 152.977C67.4489 152.693 67.4275 152.395 67.3962 152.093C67.3615 151.753 67.3054 151.427 67.2296 151.123C67.2164 151.072 67.1777 151.035 67.1311 151.028C67.1119 151.015 67.0884 151.007 67.0655 151.007L66.4786 151.011L65.8921 151.014C65.8846 150.965 65.876 150.916 65.8687 150.865C65.7981 150.305 65.8636 149.735 65.9269 149.184C65.9425 149.05 65.9579 148.916 65.9714 148.781L66.6483 148.779L67.3231 148.774C67.3707 148.774 67.4136 148.745 67.432 148.701C67.4533 148.686 67.4674 148.665 67.4729 148.64C67.6384 147.897 67.7179 147.069 67.7158 146.11C67.7146 145.291 67.6502 144.46 67.5245 143.639L67.9086 143.639L68.2928 143.637C68.3475 143.637 68.3959 143.597 68.4079 143.544C68.4214 143.518 68.4255 143.487 68.4189 143.457C68.3817 143.287 68.35 143.108 68.3247 142.926C68.2184 142.112 68.2607 141.296 68.3096 140.675C68.3128 140.637 68.2932 140.601 68.2572 140.577C68.2432 140.526 68.1965 140.491 68.1445 140.491Z" fill="#E2EDFF"/>
<path d="M60.2717 141.697C58.7491 141.705 57.2258 141.714 55.7031 141.724C56.8606 141.82 58.0194 141.903 59.1774 141.993C61.1725 142.149 63.168 142.326 65.1464 142.637C65.1321 142.322 65.1486 142.006 65.1217 141.692C65.1217 141.696 65.1223 141.699 65.1223 141.702C65.1212 141.691 65.1203 141.68 65.119 141.669C63.503 141.678 61.8877 141.688 60.2717 141.697Z" fill="#1074D2"/>
<path d="M64.3951 154.943C62.5158 154.953 60.6358 154.964 58.7565 154.975C57.2734 154.984 55.7896 154.993 54.3065 155.001H54.304H54.3034C54.3027 155.006 54.3027 155.011 54.3027 155.017L56.6615 155.13C58.5991 155.222 60.5374 155.315 62.475 155.408C63.7869 155.471 65.0986 155.533 66.4099 155.596C66.4133 155.365 66.4233 155.153 66.4409 154.951C66.4046 154.948 66.3685 154.945 66.3321 154.941C66.3265 154.94 66.3206 154.936 66.3158 154.932C65.6756 154.936 65.0353 154.939 64.3951 154.943Z" fill="#1074D2"/>
<path d="M63.8453 146.159C63.3513 146.196 62.8573 146.23 62.3628 146.255C61.8791 146.279 61.3955 146.298 60.9125 146.321C59.9749 146.366 59.0363 146.426 58.1094 146.576C59.5577 146.567 61.0063 146.559 62.4546 146.551C64.2081 146.54 65.9616 146.531 67.7146 146.52C67.7177 146.386 67.7188 146.249 67.7188 146.11C67.7186 146.013 67.7177 145.917 67.7158 145.82C66.4266 145.946 65.1368 146.063 63.8453 146.159Z" fill="#1074D2"/>
<path d="M64.3013 152.505C62.8658 152.513 61.4312 152.521 59.9961 152.529C60.7939 152.606 61.5933 152.668 62.3934 152.722C64.082 152.833 65.7731 152.908 67.4622 153.012C67.4617 153.001 67.4613 152.989 67.4608 152.977C67.4543 152.815 67.4445 152.651 67.4323 152.486C66.3891 152.492 65.3452 152.498 64.3013 152.505Z" fill="#1074D2"/>
<path d="M63.1152 156.613C64.229 156.718 65.3414 156.84 66.4569 156.92C66.4492 156.812 66.4419 156.703 66.4355 156.594C65.3285 156.6 64.222 156.607 63.1152 156.613Z" fill="#1074D2"/>
<path d="M56.4946 158.721C54.6207 158.732 52.7468 158.742 50.8723 158.753C49.2926 158.763 47.7135 158.772 46.1337 158.781H46.1294H46.1039H46.1009H46.0857C45.8737 158.783 45.661 158.784 45.4482 158.785H45.4447H45.3888C45.3742 158.799 45.3632 158.816 45.3566 158.836C45.3462 158.842 45.3359 158.852 45.328 158.865C45.3111 158.889 45.3044 158.917 45.3073 158.956C45.3191 159.078 45.33 159.199 45.3395 159.321C46.408 159.277 47.4764 159.233 48.5453 159.189C50.6622 159.102 52.779 159.016 54.896 158.928C56.7668 158.851 58.6382 158.775 60.5097 158.698C59.1711 158.706 57.8328 158.713 56.4946 158.721Z" fill="#1074D2"/>
<path d="M65.0378 143.722C63.1738 143.733 61.3095 143.743 59.4455 143.754C57.9919 143.762 56.5387 143.77 55.0859 143.779C56.099 143.847 57.1127 143.915 58.1263 143.982C60.0148 144.109 61.9039 144.235 63.7922 144.361C64.7487 144.426 65.7044 144.49 66.6608 144.554C66.9893 144.575 67.318 144.598 67.6465 144.62C67.6184 144.315 67.5817 144.01 67.5363 143.707C66.7033 143.712 65.8708 143.717 65.0378 143.722Z" fill="#1074D2"/>
<path d="M63.2962 148.713C61.3226 148.724 59.3486 148.736 57.3752 148.747C55.0516 148.761 52.7287 148.774 50.4052 148.787C48.5161 148.798 46.6259 148.809 44.7363 148.819C44.7382 149.183 44.7639 149.55 44.7945 149.91C46.2115 149.82 47.6289 149.73 49.0461 149.64C51.6053 149.477 54.1639 149.315 56.7231 149.152C59.0405 149.005 61.3576 148.858 63.675 148.71C63.5487 148.711 63.4225 148.712 63.2962 148.713Z" fill="#1074D2"/>
<path d="M47.0068 82.0366L47.3369 83.3784L47.3438 83.4077L47.3467 83.4175C47.7759 85.1 48.2328 86.7204 48.7061 88.2339L48.707 88.2349C50.1153 92.7176 51.741 96.5692 53.6758 100.01L53.6836 100.005C55.495 103.194 57.5982 106.014 59.9297 108.389L60.7871 109.261V109.21C60.9148 109.33 61.041 109.447 61.166 109.56C57.8956 112.19 54.5675 114.744 51.0996 117.093C49.8831 117.918 48.6479 118.717 47.3945 119.484L46.1592 120.226C44.5031 121.2 42.8174 122.117 41.0957 122.964H41.0947C41.0255 122.999 40.9553 123.031 40.8857 123.065C38.4422 120.79 36.1919 118.255 34.1816 115.511C33.0489 113.968 31.9964 112.358 31.042 110.718L30.6387 110.014C29.5496 108.072 28.6056 106.098 27.834 104.151C26.2705 100.195 25.3532 96.2894 25.0986 92.5278C28.2193 90.9105 31.3395 89.2928 34.458 87.6772C38.5822 85.5388 42.7049 83.4011 46.8271 81.2642C46.8867 81.5218 46.9455 81.7797 47.0068 82.0366Z" fill="white" stroke="#1074D2"/>
<path d="M47.5649 90.3151C47.5641 90.3155 47.5637 90.3159 47.5629 90.3163C47.5614 90.3167 47.5594 90.3171 47.557 90.3183C47.5522 90.3206 47.5479 90.3238 47.5431 90.327C46.5951 90.8493 45.6476 91.3685 44.698 91.8897C44.6342 91.9249 44.5878 92.0074 44.5739 92.0767C44.5585 92.1544 44.5755 92.238 44.6203 92.303C44.6639 92.3664 44.7321 92.4112 44.8078 92.4267C44.8914 92.4437 44.9611 92.4203 45.0337 92.3803C45.9888 91.8556 46.9459 91.332 47.901 90.8057C48.0433 90.7269 48.0635 90.5164 47.9783 90.3924C47.9351 90.329 47.8669 90.2842 47.7908 90.2687C47.7718 90.2648 47.754 90.2632 47.7361 90.2632C47.6755 90.2632 47.6212 90.2838 47.5649 90.3151Z" fill="#FC6A5A"/>
<path d="M49.3362 93.2795C48.3858 93.8026 47.4335 94.3245 46.4831 94.8477C46.4181 94.8833 46.373 94.9654 46.3591 95.0351C46.3436 95.1124 46.3607 95.1944 46.4055 95.261C46.4491 95.3244 46.5172 95.3692 46.5929 95.3847C46.6765 95.4017 46.7463 95.3787 46.8188 95.3383C47.7696 94.8152 48.7215 94.2936 49.6723 93.7701C49.7373 93.7344 49.7821 93.6524 49.7959 93.583C49.8114 93.5054 49.7944 93.4233 49.7496 93.3567C49.7064 93.2933 49.6382 93.2485 49.5621 93.2331C49.5431 93.2291 49.5253 93.2275 49.5074 93.2275C49.4468 93.2275 49.3925 93.2481 49.3362 93.2795Z" fill="#FC6A5A"/>
<path d="M49.7741 97.3711C44.108 100.49 38.436 103.602 32.7667 106.717C32.5701 106.825 32.3719 106.934 32.1738 107.042C31.9384 107.172 31.7727 107.472 31.72 107.728C31.6629 108.014 31.7248 108.316 31.8888 108.558C32.0481 108.791 32.2974 108.955 32.5749 109.011C32.8828 109.073 33.138 108.989 33.4043 108.842C39.2627 105.624 45.1206 102.407 50.9769 99.1854L51.0047 99.1715C51.2401 99.0415 51.4058 98.7411 51.4585 98.4859C51.5159 98.1994 51.4537 97.8974 51.2896 97.656C51.1303 97.4222 50.881 97.2581 50.604 97.2022C50.5339 97.1884 50.4665 97.1816 50.4011 97.1816C50.1788 97.1816 49.9798 97.2573 49.7741 97.3711Z" fill="#FC6A5A"/>
<path d="M53.115 101.653C52.1892 102.162 51.2618 102.672 50.336 103.181C50.2508 103.228 50.1905 103.337 50.1719 103.43C50.1505 103.534 50.1735 103.644 50.2326 103.732C50.2912 103.816 50.3812 103.876 50.4814 103.896C50.5948 103.92 50.6875 103.889 50.7834 103.836C51.7092 103.327 52.6366 102.818 53.5624 102.308C53.6476 102.261 53.7078 102.152 53.7265 102.059C53.7483 101.955 53.7249 101.845 53.6662 101.757C53.6072 101.673 53.5176 101.613 53.4169 101.593C53.3908 101.587 53.3658 101.585 53.3416 101.585C53.2608 101.585 53.1891 101.612 53.115 101.653Z" fill="#FC6A5A"/>
<path d="M55.495 104.853C54.4951 105.403 53.4932 105.952 52.4933 106.503C52.4065 106.55 52.3463 106.66 52.3277 106.751C52.3074 106.856 52.3292 106.966 52.3895 107.053C52.4469 107.138 52.5381 107.198 52.6388 107.219C52.7501 107.242 52.8433 107.211 52.9408 107.156C53.9407 106.607 54.9421 106.057 55.9424 105.506C56.0292 105.46 56.0895 105.35 56.1081 105.258C56.1283 105.153 56.1065 105.043 56.0463 104.957C55.9888 104.872 55.8977 104.811 55.797 104.791C55.7712 104.786 55.7467 104.783 55.7229 104.783C55.6424 104.783 55.5699 104.811 55.495 104.853Z" fill="#FC6A5A"/>
<path d="M58.0381 107.894C56.97 108.482 55.8999 109.069 54.8303 109.658C54.7451 109.704 54.6848 109.814 54.6662 109.907C54.6444 110.011 54.6678 110.12 54.728 110.209C54.7855 110.294 54.8767 110.353 54.9773 110.373C55.0891 110.396 55.1818 110.365 55.2793 110.313C56.3474 109.724 57.4174 109.138 58.4871 108.549C58.5723 108.503 58.6325 108.393 58.6512 108.3C58.673 108.196 58.6496 108.086 58.5893 107.998C58.5319 107.913 58.4407 107.854 58.34 107.834C58.3143 107.829 58.2897 107.826 58.2655 107.826C58.1855 107.826 58.113 107.854 58.0381 107.894Z" fill="#FC6A5A"/>
<path d="M38.9473 95.085C38.8914 95.085 38.8375 95.1016 38.7721 95.1381C35.6198 96.8688 32.4695 98.5995 29.3176 100.332L29.209 100.392L29.0576 100.474C28.9894 100.511 28.9447 100.597 28.9304 100.666C28.913 100.746 28.9308 100.833 28.9772 100.898C29.02 100.962 29.0897 101.009 29.1686 101.027C29.1892 101.03 29.2078 101.031 29.2253 101.031C29.2811 101.031 29.337 101.015 29.4004 100.978L34.2367 98.3217L39.0713 95.6652L39.1149 95.6418C39.1827 95.6049 39.2278 95.5189 39.2421 95.4504C39.2596 95.3687 39.2429 95.2863 39.195 95.2181C39.1525 95.1543 39.0828 95.1075 39.0039 95.0897C38.9833 95.0865 38.9643 95.085 38.9473 95.085Z" fill="#323B7E"/>
<path d="M40.2285 98.3203C40.1723 98.3203 40.1215 98.3354 40.0534 98.3718C37.1305 99.9789 34.2077 101.586 31.2849 103.191L30.7816 103.466L30.6052 103.564C30.5359 103.602 30.4903 103.688 30.4764 103.756C30.4606 103.838 30.478 103.923 30.5248 103.988C30.566 104.052 30.6349 104.099 30.7146 104.116C30.7352 104.12 30.7538 104.121 30.7729 104.121C30.8272 104.121 30.8815 104.105 30.948 104.07L35.6325 101.497L40.303 98.9283L40.3494 98.9037L40.3962 98.8771C40.4655 98.8395 40.5107 98.7539 40.525 98.6857C40.5408 98.6037 40.523 98.5189 40.4762 98.4535C40.4354 98.3897 40.3661 98.3429 40.2864 98.3251C40.2646 98.3219 40.2456 98.3203 40.2285 98.3203Z" fill="#323B7E"/>
<path d="M44.4316 106.473C44.3599 106.473 44.287 106.495 44.2021 106.543L39.5129 109.119L34.8467 111.684C34.756 111.733 34.6965 111.846 34.6779 111.937C34.6561 112.043 34.6795 112.155 34.7417 112.245C34.8008 112.333 34.8939 112.394 34.9965 112.414C35.0215 112.419 35.0469 112.422 35.0718 112.422C35.144 112.422 35.2173 112.4 35.3013 112.35C38.4191 110.638 41.5385 108.925 44.6563 107.211C44.7471 107.162 44.8065 107.049 44.8255 106.957C44.8473 106.852 44.824 106.74 44.7617 106.649C44.7023 106.562 44.6096 106.501 44.5065 106.481C44.4823 106.475 44.457 106.473 44.4316 106.473Z" fill="#323B7E"/>
<path d="M46.6525 109.761C46.58 109.761 46.5082 109.783 46.4198 109.832L41.7152 112.416L37.0121 115.002C36.9206 115.051 36.8603 115.164 36.8413 115.255C36.8207 115.365 36.8441 115.477 36.9055 115.563C36.9622 115.649 37.0545 115.711 37.1584 115.733C37.1853 115.738 37.2103 115.74 37.2337 115.74C37.307 115.74 37.3787 115.718 37.4663 115.669L42.1773 113.083L46.8744 110.5C46.966 110.451 47.0258 110.337 47.0448 110.247C47.0654 110.137 47.0417 110.025 46.9806 109.939C46.9239 109.853 46.8316 109.79 46.7274 109.769C46.7008 109.764 46.6759 109.761 46.6525 109.761Z" fill="#323B7E"/>
<path d="M48.7169 113.064C48.6424 113.064 48.5711 113.087 48.4859 113.136C45.5044 114.774 42.5209 116.413 39.5395 118.053C39.4475 118.101 39.3873 118.215 39.3686 118.307C39.348 118.415 39.3714 118.527 39.4328 118.614C39.4899 118.699 39.5823 118.761 39.6857 118.783C39.7126 118.788 39.7376 118.791 39.7626 118.791C39.8355 118.791 39.9068 118.769 39.9936 118.719C42.9755 117.082 45.9586 115.442 48.94 113.802C49.0316 113.754 49.0918 113.641 49.1109 113.549C49.1311 113.441 49.1077 113.329 49.0471 113.241C48.9896 113.156 48.8972 113.095 48.7934 113.072C48.7653 113.068 48.7419 113.064 48.7169 113.064Z" fill="#323B7E"/>
<path d="M28.5419 98.2118L27.166 95.4845L27.9627 95.0779C28.1256 94.9947 28.2725 94.9578 28.4035 94.9672C28.5367 94.9754 28.6562 95.0259 28.762 95.1187C28.8688 95.2081 28.9636 95.3347 29.0462 95.4986C29.1357 95.6759 29.178 95.835 29.1733 95.9757C29.1674 96.1142 29.1222 96.2361 29.0378 96.3413C28.9556 96.4453 28.8408 96.5349 28.6936 96.6101L28.4258 96.7468L29.0373 97.959L28.5419 98.2118ZM28.2491 96.3966L28.4366 96.301C28.5258 96.2554 28.5888 96.2077 28.6254 96.158C28.6632 96.1049 28.6768 96.0457 28.6663 95.9804C28.657 95.9118 28.628 95.8293 28.5793 95.7327C28.5294 95.634 28.4814 95.5583 28.4352 95.5056C28.3901 95.4496 28.3357 95.4195 28.2719 95.4154C28.2103 95.4102 28.1282 95.4337 28.0255 95.4861L27.8381 95.5818L28.2491 96.3966Z" fill="#FC6A5A"/>
<path d="M30.0129 97.4609L29.1793 94.4568L29.7082 94.1869L31.6263 96.6374L31.1677 96.8715L30.743 96.2965L30.271 96.5374L30.4782 97.2234L30.0129 97.4609ZM30.1615 96.1953L30.5297 96.0073L29.7681 94.9565L30.1615 96.1953Z" fill="#FC6A5A"/>
<path d="M32.1366 96.3769L31.6118 95.3364L30.2118 93.9298L30.6737 93.694L31.5537 94.6039L31.3231 93.3625L31.775 93.1318L32.0837 95.0955L32.6086 96.1359L32.1366 96.3769Z" fill="#FC6A5A"/>
<path d="M33.3632 95.7507L32.0342 92.9995L32.5464 92.7381L33.8842 94.4305L33.333 92.3366L33.8284 92.0837L35.2544 94.7854L34.8862 94.9733L33.8898 93.0982L34.4611 95.1903L34.1632 95.3424L32.8119 93.6399L33.7348 95.5611L33.3632 95.7507Z" fill="#FC6A5A"/>
<path d="M35.6548 94.581L34.279 91.8537L35.417 91.2727L35.5937 91.6229L34.951 91.951L35.3468 92.7355L35.8522 92.4775L36.0272 92.8243L35.5217 93.0823L35.977 93.9847L36.6263 93.6532L36.7996 93.9966L35.6548 94.581Z" fill="#FC6A5A"/>
<path d="M37.0866 93.8501L35.7107 91.1228L36.0555 90.9469L37.4996 92.1658L36.7149 90.6103L37.1233 90.4018L38.4991 93.1291L38.1711 93.2965L36.6862 92.0052L37.5083 93.6349L37.0866 93.8501Z" fill="#FC6A5A"/>
<path d="M39.1817 92.7807L37.991 90.4204L37.5592 90.6408L37.374 90.2738L38.7263 89.5835L38.9115 89.9505L38.4864 90.1675L39.6771 92.5278L39.1817 92.7807Z" fill="#FC6A5A"/>
</svg>
