<svg width="205" height="162" viewBox="0 0 205 162" fill="none" xmlns="http://www.w3.org/2000/svg">
<path d="M172.4 116.352H3.56808C2.06438 116.352 0.845703 115.134 0.845703 113.63V3.22235C0.845703 1.71867 2.06438 0.5 3.56808 0.5H172.4C173.903 0.5 175.122 1.71867 175.122 3.22235V113.63C175.117 115.134 173.898 116.352 172.4 116.352Z" fill="#CCCCCC"/>
<path d="M175.117 100.51H0.845703V2.86855C0.845703 1.56142 1.90714 0.5 3.21427 0.5H172.753C174.061 0.5 175.122 1.56142 175.122 2.86855V100.51H175.117Z" fill="#9E9E9E"/>
<path d="M91.9414 109.664H85.0077C83.9119 109.664 83.0273 108.779 83.0273 107.683C83.0273 106.588 83.9119 105.703 85.0077 105.703H91.9414C93.0372 105.703 93.9218 106.588 93.9218 107.683C93.9218 108.779 93.0372 109.664 91.9414 109.664Z" fill="#9E9E9E"/>
<path d="M100.04 134.745V116.352H76.3147V134.745C76.3147 139.949 72.0985 144.165 66.8945 144.165V152.062H110.059V144.165H109.455C104.256 144.165 100.04 139.944 100.04 134.745Z" fill="#CCCCCC"/>
<path d="M100.039 119.015L76.3145 121.679V116.352H100.039V119.015Z" fill="#B3B3B3"/>
<path d="M168.182 6.87354H7.28125V92.264H168.182V6.87354Z" fill="white"/>
<path d="M169.765 6.02881H7.18945V92.8247H169.765V6.02881Z" fill="#DEDEDE"/>
<path d="M169.765 6.02881H7.18945V17.3015H169.765V6.02881Z" fill="white"/>
<path d="M142.134 14.0677H12.797C12.1926 14.0677 11.7012 13.5763 11.7012 12.9719V10.1905C11.7012 9.58613 12.1926 9.09473 12.797 9.09473H142.139C142.744 9.09473 143.235 9.58613 143.235 10.1905V12.9719C143.23 13.5812 142.739 14.0677 142.134 14.0677Z" fill="#DEDEDE"/>
<path d="M153.157 11.5812C153.157 12.8687 152.115 13.9104 150.827 13.9104C149.54 13.9104 148.498 12.8687 148.498 11.5812C148.498 10.2937 149.54 9.25195 150.827 9.25195C152.115 9.25687 153.157 10.2986 153.157 11.5812Z" fill="#275996"/>
<path d="M159.614 11.5812C159.614 12.8687 158.572 13.9104 157.284 13.9104C155.997 13.9104 154.955 12.8687 154.955 11.5812C154.955 10.2937 155.997 9.25195 157.284 9.25195C158.572 9.25687 159.614 10.2986 159.614 11.5812Z" fill="#55BDFC"/>
<path d="M166.071 11.5812C166.071 12.8687 165.029 13.9104 163.741 13.9104C162.454 13.9104 161.412 12.8687 161.412 11.5812C161.412 10.2937 162.454 9.25195 163.741 9.25195C165.024 9.25687 166.071 10.2986 166.071 11.5812Z" fill="#55BDFC"/>
<path d="M87.1021 24.5693H11.7012V85.5373H87.1021V24.5693Z" fill="white"/>
<path d="M126.99 24.5693H91.9629V27.503H126.99V24.5693Z" fill="white"/>
<path d="M126.99 30.3735H91.9629V33.3072H126.99V30.3735Z" fill="white"/>
<path d="M126.99 36.1758H91.9629V39.1094H126.99V36.1758Z" fill="white"/>
<path d="M126.99 41.9795H91.9629V44.9131H126.99V41.9795Z" fill="white"/>
<path d="M126.99 47.7832H91.9629V50.7169H126.99V47.7832Z" fill="white"/>
<path d="M126.99 53.5874H91.9629V56.5211H126.99V53.5874Z" fill="white"/>
<path d="M126.99 59.3896H91.9629V62.3233H126.99V59.3896Z" fill="white"/>
<path d="M126.99 65.1938H91.9629V68.1275H126.99V65.1938Z" fill="white"/>
<path d="M126.99 70.9971H91.9629V73.9307H126.99V70.9971Z" fill="white"/>
<path d="M126.99 76.7998H91.9629V79.7335H126.99V76.7998Z" fill="white"/>
<path d="M126.99 82.6035H91.9629V85.5372H126.99V82.6035Z" fill="white"/>
<path d="M165.078 24.5693H130.051V27.503H165.078V24.5693Z" fill="white"/>
<path d="M165.078 30.3735H130.051V33.3072H165.078V30.3735Z" fill="white"/>
<path d="M165.078 36.1758H130.051V39.1094H165.078V36.1758Z" fill="white"/>
<path d="M165.078 41.9795H130.051V44.9131H165.078V41.9795Z" fill="white"/>
<path d="M165.078 47.7832H130.051V50.7169H165.078V47.7832Z" fill="white"/>
<path d="M165.078 53.5874H130.051V56.5211H165.078V53.5874Z" fill="white"/>
<path d="M165.078 59.3896H130.051V62.3233H165.078V59.3896Z" fill="white"/>
<path d="M165.078 65.1938H130.051V68.1275H165.078V65.1938Z" fill="white"/>
<path d="M165.078 70.9971H130.051V73.9307H165.078V70.9971Z" fill="white"/>
<path d="M165.078 76.7998H130.051V79.7335H165.078V76.7998Z" fill="white"/>
<path d="M165.078 82.6035H130.051V85.5372H165.078V82.6035Z" fill="white"/>
<path d="M30.2856 30.0132H45.5387C46.1186 30.0132 46.5854 30.4948 46.5608 31.0795L45.8434 49.4529C45.8237 50.0033 45.3716 50.4357 44.8213 50.4357H19.3518C18.8015 50.4357 18.3494 50.0033 18.3297 49.4529L17.6123 31.0795C17.5877 30.4997 18.0545 30.0132 18.6344 30.0132C19.1012 30.0132 29.8236 30.0132 30.2856 30.0132Z" fill="#BABABA"/>
<path d="M44.5519 30.7361L44.1637 29.2963C44.0409 28.8491 43.6379 28.5396 43.176 28.5396H36.2571C35.7951 28.5396 35.3873 28.8491 35.2693 29.2963L34.8811 30.7361C34.7583 31.1833 34.3553 31.4929 33.8934 31.4929H18.6402C18.0604 31.4929 17.5935 31.9744 17.6181 32.5592L18.3356 50.9326C18.3552 51.483 18.8073 51.9154 19.3577 51.9154H44.8271C45.3775 51.9154 45.8296 51.483 45.8493 50.9326L46.5667 32.5592C46.5913 31.9793 46.1244 31.4929 45.5446 31.4929C45.0777 31.4929 44.6748 31.1784 44.5519 30.7361Z" fill="#DEDEDE"/>
<path d="M42.5756 49.8263H33.6616C33.1996 49.8263 32.8262 49.4528 32.8262 48.9909V48.1801C32.8262 47.7182 33.1996 47.3447 33.6616 47.3447H42.5756C43.0375 47.3447 43.411 47.7182 43.411 48.1801V48.9909C43.4061 49.4528 43.0326 49.8263 42.5756 49.8263Z" fill="white"/>
<path d="M30.2856 58.8535H45.5387C46.1186 58.8535 46.5854 59.3351 46.5608 59.9199L45.8434 78.2933C45.8237 78.8436 45.3716 79.2761 44.8213 79.2761H19.3518C18.8015 79.2761 18.3494 78.8436 18.3297 78.2933L17.6123 59.9199C17.5877 59.34 18.0545 58.8535 18.6344 58.8535C19.1012 58.8535 29.8236 58.8535 30.2856 58.8535Z" fill="#BABABA"/>
<path d="M44.5519 59.5706L44.1637 58.1308C44.0409 57.6836 43.6379 57.374 43.176 57.374H36.2571C35.7951 57.374 35.3873 57.6836 35.2693 58.1308L34.8811 59.5706C34.7583 60.0178 34.3553 60.3273 33.8934 60.3273H18.6402C18.0604 60.3273 17.5935 60.8089 17.6181 61.3937L18.3356 79.7671C18.3552 80.3175 18.8073 80.7499 19.3577 80.7499H44.8271C45.3775 80.7499 45.8296 80.3175 45.8493 79.7671L46.5667 61.3937C46.5913 60.8138 46.1244 60.3273 45.5446 60.3273C45.0777 60.3273 44.6748 60.0178 44.5519 59.5706Z" fill="#DEDEDE"/>
<path d="M42.5756 78.6661H33.6616C33.1996 78.6661 32.8262 78.2927 32.8262 77.8308V77.0199C32.8262 76.558 33.1996 76.1846 33.6616 76.1846H42.5756C43.0375 76.1846 43.411 76.558 43.411 77.0199V77.8308C43.4061 78.2927 43.0326 78.6661 42.5756 78.6661Z" fill="white"/>
<path d="M64.9106 30.0132H80.1637C80.7436 30.0132 81.2104 30.4948 81.1858 31.0795L80.4684 49.4529C80.4487 50.0033 79.9966 50.4357 79.4463 50.4357H53.9768C53.4265 50.4357 52.9744 50.0033 52.9547 49.4529L52.2373 31.0795C52.2127 30.4997 52.6795 30.0132 53.2594 30.0132C53.7213 30.0132 64.4437 30.0132 64.9106 30.0132Z" fill="#BABABA"/>
<path d="M79.1759 30.7361L78.7877 29.2963C78.6649 28.8491 78.2619 28.5396 77.8 28.5396H70.886C70.424 28.5396 70.0162 28.8491 69.8982 29.2963L69.51 30.7361C69.3872 31.1833 68.9842 31.4929 68.5223 31.4929H53.2691C52.6893 31.4929 52.2225 31.9744 52.247 32.5592L52.9645 50.9326C52.9841 51.483 53.4362 51.9154 53.9866 51.9154H79.456C80.0064 51.9154 80.4585 51.483 80.4782 50.9326L81.1956 32.5592C81.2202 31.9793 80.7533 31.4929 80.1735 31.4929C79.7017 31.4929 79.2939 31.1784 79.1759 30.7361Z" fill="#DEDEDE"/>
<path d="M77.1948 49.8263H68.2807C67.8188 49.8263 67.4453 49.4528 67.4453 48.9909V48.1801C67.4453 47.7182 67.8188 47.3447 68.2807 47.3447H77.1948C77.6567 47.3447 78.0302 47.7182 78.0302 48.1801V48.9909C78.0302 49.4528 77.6567 49.8263 77.1948 49.8263Z" fill="white"/>
<path d="M64.9106 58.8535H80.1637C80.7436 58.8535 81.2104 59.3351 81.1858 59.9199L80.4684 78.2933C80.4487 78.8436 79.9966 79.2761 79.4463 79.2761H53.9768C53.4265 79.2761 52.9744 78.8436 52.9547 78.2933L52.2373 59.9199C52.2127 59.34 52.6795 58.8535 53.2594 58.8535C53.7213 58.8535 64.4437 58.8535 64.9106 58.8535Z" fill="#BABABA"/>
<path d="M79.1759 59.5706L78.7877 58.1308C78.6649 57.6836 78.2619 57.374 77.8 57.374H70.886C70.424 57.374 70.0162 57.6836 69.8982 58.1308L69.51 59.5706C69.3872 60.0178 68.9842 60.3273 68.5223 60.3273H53.2691C52.6893 60.3273 52.2225 60.8089 52.247 61.3937L52.9645 79.7671C52.9841 80.3175 53.4362 80.7499 53.9866 80.7499H79.456C80.0064 80.7499 80.4585 80.3175 80.4782 79.7671L81.1956 61.3937C81.2202 60.8138 80.7533 60.3273 80.1735 60.3273C79.7017 60.3273 79.2939 60.0178 79.1759 59.5706Z" fill="#DEDEDE"/>
<path d="M77.1948 78.6661H68.2807C67.8188 78.6661 67.4453 78.2927 67.4453 77.8308V77.0199C67.4453 76.558 67.8188 76.1846 68.2807 76.1846H77.1948C77.6567 76.1846 78.0302 76.558 78.0302 77.0199V77.8308C78.0302 78.2927 77.6567 78.6661 77.1948 78.6661Z" fill="white"/>
<path d="M146.021 34.7456H94.5312V152.087H146.021V34.7456Z" fill="#275996"/>
<path d="M141.873 39.1094H98.5215V146.942H141.873V39.1094Z" fill="#1C306B"/>
<path d="M140.823 67.5957H99.7363V92.1313H140.823V67.5957Z" fill="#275996"/>
<path d="M140.823 94.4409H99.7363V118.977H140.823V94.4409Z" fill="#275996"/>
<path d="M140.823 119.915H99.7363V144.451H140.823V119.915Z" fill="#275996"/>
<path d="M125.554 97.9595H114.994V100.269H125.554V97.9595Z" fill="#1C306B"/>
<path d="M140.823 40.269H99.7363V64.8046H140.823V40.269Z" fill="#275996"/>
<path d="M125.554 44.0083H114.994V44.7651H125.554V44.0083Z" fill="#1C306B"/>
<path d="M99.8132 67.5957L94.0195 73.2075H146.531L140.737 67.5957H99.8132Z" fill="#123466"/>
<path opacity="0.6" d="M94.5312 104.564H146.021L94.5312 109.63V104.564Z" fill="#1C306B"/>
<path d="M117.858 65.9697H138.536C139.323 65.9697 139.957 66.6233 139.922 67.4144L138.949 92.3186C138.92 93.0655 138.306 93.6552 137.563 93.6552H103.037C102.291 93.6552 101.681 93.0655 101.652 92.3186L100.679 67.4144C100.649 66.6282 101.278 65.9697 102.064 65.9697C102.698 65.9697 117.234 65.9697 117.858 65.9697Z" fill="#F2660A"/>
<path d="M137.199 66.9427L136.673 64.9919C136.511 64.3875 135.961 63.9648 135.332 63.9648H125.956C125.327 63.9648 124.781 64.3875 124.614 64.9919L124.089 66.9427C123.926 67.5472 123.376 67.9698 122.747 67.9698H102.069C101.282 67.9698 100.649 68.6233 100.683 69.4145L101.656 94.3186C101.685 95.0655 102.3 95.6552 103.042 95.6552H137.568C138.315 95.6552 138.924 95.0655 138.953 94.3186L139.926 69.4145C139.956 68.6282 139.327 67.9698 138.541 67.9698C137.912 67.9698 137.361 67.5472 137.199 66.9427Z" fill="#FFB330"/>
<path d="M134.811 92.8246H122.138C121.676 92.8246 121.303 92.4511 121.303 91.9892V90.2988C121.303 89.8368 121.676 89.4634 122.138 89.4634H134.811C135.273 89.4634 135.647 89.8368 135.647 90.2988V91.9892C135.647 92.4511 135.273 92.8246 134.811 92.8246Z" fill="white"/>
<path d="M126.717 66.2798H134.496" stroke="#123466" stroke-miterlimit="10"/>
<path d="M115.78 68.6914H137.318C138.139 68.6914 138.797 69.3745 138.763 70.1951L137.751 96.1361C137.721 96.9125 137.082 97.5267 136.306 97.5267H100.345C99.5686 97.5267 98.9298 96.9125 98.9003 96.1361L97.888 70.1951C97.8536 69.3745 98.5121 68.6914 99.3327 68.6914C99.9814 68.6914 115.126 68.6914 115.78 68.6914Z" fill="#F2660A"/>
<path d="M135.923 69.7086L135.372 67.6791C135.2 67.0501 134.63 66.6128 133.977 66.6128H124.213C123.559 66.6128 122.989 67.0501 122.817 67.6791L122.267 69.7086C122.095 70.3376 121.525 70.7749 120.871 70.7749H99.3327C98.5121 70.7749 97.8536 71.458 97.888 72.2786L98.9003 98.2196C98.9298 98.996 99.5686 99.6103 100.345 99.6103H136.306C137.082 99.6103 137.721 98.996 137.751 98.2196L138.763 72.2786C138.797 71.458 138.139 70.7749 137.318 70.7749C136.665 70.7749 136.09 70.3376 135.923 69.7086Z" fill="#FFB330"/>
<path d="M133.47 96.6662H120.197C119.735 96.6662 119.361 96.2928 119.361 95.8309V94.0029C119.361 93.5409 119.735 93.1675 120.197 93.1675H133.47C133.931 93.1675 134.305 93.5409 134.305 94.0029V95.8309C134.305 96.2928 133.931 96.6662 133.47 96.6662Z" fill="white"/>
<path d="M146.531 73.2065H94.0195V104.563H146.531V73.2065Z" fill="#275996"/>
<path d="M125.217 68.8193H132.996" stroke="#123466" stroke-miterlimit="10"/>
<path d="M109.308 152.087L109.15 138.888L112.718 152.087H109.308Z" fill="#1C306B"/>
<path d="M122.737 134.657L139.567 130.957C140.211 130.814 140.84 131.237 140.953 131.881L144.614 152.328C144.722 152.937 144.329 153.527 143.725 153.66L115.626 159.832C115.017 159.964 114.417 159.596 114.26 158.996L109.017 138.898C108.85 138.264 109.248 137.615 109.886 137.478C110.398 137.37 122.226 134.77 122.737 134.657Z" fill="#F2660A"/>
<path d="M138.648 131.994L137.872 130.5C137.631 130.038 137.11 129.793 136.599 129.906L128.968 131.581C128.457 131.694 128.083 132.132 128.059 132.658L127.98 134.338C127.955 134.859 127.582 135.301 127.071 135.414L110.24 139.115C109.597 139.257 109.203 139.901 109.371 140.535L114.614 160.633C114.771 161.232 115.375 161.606 115.98 161.473L144.078 155.301C144.688 155.169 145.081 154.579 144.968 153.97L141.307 133.522C141.189 132.874 140.56 132.456 139.921 132.599C139.415 132.702 138.894 132.456 138.648 131.994Z" fill="#FFB330"/>
<path d="M141.203 153.517L131.159 155.724C130.712 155.822 130.265 155.537 130.166 155.09L129.926 153.984C129.827 153.537 130.112 153.09 130.56 152.991L140.604 150.785C141.051 150.687 141.498 150.972 141.596 151.419L141.837 152.525C141.936 152.977 141.651 153.419 141.203 153.517Z" fill="white"/>
<path d="M129.051 133.036L136.638 131.331" stroke="#123466" stroke-miterlimit="10"/>
<path d="M125.554 78.2295H114.994V78.9863H125.554V78.2295Z" fill="#1C306B"/>
<path d="M125.554 124.377H114.994V125.134H125.554V124.377Z" fill="#1C306B"/>
<path d="M186.042 36.3521C186.042 36.3521 187.9 42.6321 191.747 43.8213C196.288 45.2267 194.219 51.6198 191.182 51.6886C191.182 51.6886 196.366 57.9196 188.303 59.5903C181.58 60.9859 177.885 42.5486 177.885 42.5486L186.042 36.3521Z" fill="#1C306B"/>
<path d="M169.11 37.8462C169.11 37.8462 171.051 43.168 169.061 45.5022C167.07 47.8363 169.822 51.0206 171.827 49.8658C171.827 49.8658 170.333 54.8191 175.356 53.3646C180.378 51.9051 176.869 38.6619 176.869 38.6619L169.11 37.8462Z" fill="#1C306B"/>
<path d="M160.813 145.861L149.049 154.529L163.132 154.652L165.25 152.401L166.297 154.667L169.953 154.681L168.371 145.188L160.813 145.861Z" fill="#55BDFC"/>
<path d="M154.503 150.509L155.014 153.246L164.415 153.291L163.132 154.652L149.049 154.529L154.503 150.509Z" fill="#24A3F2"/>
<path d="M165.693 153.354L169.733 153.369L169.954 154.681L166.298 154.666L165.693 153.354Z" fill="#24A3F2"/>
<path d="M166.657 145.88C166.657 145.88 163.63 149.492 157.891 148.018L161.969 144.858L166.657 145.88Z" fill="#FFC89F"/>
<path d="M163.172 81.384L144.243 83.0203L143.305 72.1604L158.17 70.8729L168.632 54.2686L176.47 61.8459L163.172 81.384Z" fill="#55BDFC"/>
<path d="M183.045 84.2144C183.045 84.2144 187.438 98.0669 181.099 101.148C174.215 104.49 169.703 119.403 169.703 119.403C169.703 119.403 168.48 132.106 168.603 136.101C168.701 139.433 168.485 143.983 168.372 145.182C168.283 146.136 160.858 146.278 160.814 145.86C160.588 143.512 160.155 136.028 159.979 134.347C159.217 127.153 158.318 121.059 159.345 115.148C160.396 109.118 165.748 87.6099 165.748 87.6099L183.045 84.2144Z" fill="#123466"/>
<path d="M191.671 141.787L186.609 155.497L198.437 147.856L198.973 144.809L201.091 146.126L204.152 144.126L197.607 137.07L191.671 141.787Z" fill="#55BDFC"/>
<path d="M188.958 149.143L190.889 151.148L198.762 146.013L198.437 147.855L186.609 155.497L188.958 149.143Z" fill="#24A3F2"/>
<path d="M199.861 145.36L203.247 143.154L204.151 144.127L201.09 146.127L199.861 145.36Z" fill="#24A3F2"/>
<path d="M186.524 84.479C186.524 84.479 192.406 96.4839 187.841 101.855C185.021 105.177 186.082 114.233 186.082 114.233C186.082 114.233 196.185 135.516 198.765 138.312L191.448 142.405C189.802 140.626 184.397 132.931 183.345 131.609C182.289 130.287 176.372 121.437 174.908 117.855C171.718 110.051 168.854 87.7468 168.854 87.7468L186.524 84.479Z" fill="#275996"/>
<path d="M175.181 50.1065L186.14 52.9468C191.929 54.9025 193.865 58.8141 193.073 62.0475L187.806 80.2588L188.872 91.0548L165.525 88.4897L167.358 73.2465C163.162 65.0205 168.68 54.3079 171.432 51.3448C171.432 51.3448 173.756 50.4996 174.322 50.308C174.975 50.0819 174.906 50.0475 175.181 50.1065Z" fill="white"/>
<path d="M184.077 42.5146L184.288 51.5761C184.19 52.5539 181.674 54.8979 179.05 55.3254C177.507 55.576 176.185 54.21 176.455 52.6719L177.654 45.7726L184.077 42.5146Z" fill="#FFC89F"/>
<path d="M176.73 51.0795L177.276 47.969L182.912 45.5464L182.681 46.7945C182.681 46.7945 181.846 48.8535 176.73 51.0795Z" fill="#F5AB74"/>
<path d="M184.573 52.4546L176.416 96.656L190.706 96.2825L189.001 77.2752L193.659 56.2089C193.659 56.204 191.615 54.2777 184.573 52.4546Z" fill="#55BDFC"/>
<path d="M174.977 50.0815C174.977 50.0815 168.85 50.4452 166.908 56.8039C164.628 64.2879 166.953 76.6319 166.953 76.6319L162.717 93.9095L164.122 94.0815L165.523 88.4942C165.523 88.4942 170.702 73.4378 168.348 67.7326C166.176 62.4599 174.977 50.0815 174.977 50.0815Z" fill="#55BDFC"/>
<path d="M184.621 52.5978L184.257 50.3472L177.574 55.0597L178.596 57.9196L184.621 52.5978Z" fill="#55BDFC"/>
<path d="M176.996 49.5806L176.824 50.529L177.576 55.0597L175.369 56.7992L175.443 50.1752L176.996 49.5806Z" fill="#55BDFC"/>
<path d="M183.811 46.858L177.895 49.5901C176.735 50.17 175.418 50.0717 174.386 49.4525C173.575 48.9661 173.049 48.1258 172.818 47.2118L170.342 39.885L180.71 35.6934L183.811 46.858Z" fill="#FFC89F"/>
<path d="M169.958 37.9344C169.869 38.4651 179.52 42.986 181.137 41.3594C184.302 38.1702 184.14 45.2267 184.14 45.2267C184.14 45.2267 191.378 33.7722 179.545 31.9246C174.98 31.2169 170.709 33.4823 169.958 37.9344Z" fill="#1C306B"/>
<path d="M171.173 42.1855L170.868 44.5246C170.829 44.8293 171.021 45.1143 171.316 45.1929L172.284 45.4583L171.173 42.1855Z" fill="#FFC89F"/>
<path d="M197.269 139.305C197.269 139.305 195.544 145.462 190.109 146.012L191.441 142.405L197.269 139.305Z" fill="#FFC89F"/>
<path d="M147.28 71.8122L147.123 71.8267L148.123 82.685L148.28 82.6706L147.28 71.8122Z" fill="#123466"/>
<path d="M147.939 64.7991L164.666 61.1234C165.305 60.9809 165.929 61.4035 166.047 62.0423L169.688 82.3617C169.796 82.971 169.408 83.5558 168.804 83.6885L140.877 89.826C140.273 89.9587 139.673 89.5902 139.516 88.9956L134.302 69.0202C134.135 68.3863 134.528 67.7475 135.167 67.605C135.673 67.4919 147.432 64.9121 147.939 64.7991Z" fill="#F2660A"/>
<path d="M141.439 65.59L143.503 67.0789C143.656 67.2067 143.838 67.2902 144.039 67.3295C144.648 67.4376 145.906 67.5949 145.779 67.0543C145.611 66.3467 143.248 64.4155 143.248 64.4155" fill="#FFC89F"/>
<path d="M139.846 66.2828L141.91 67.7718C142.062 67.8995 142.244 67.9831 142.45 68.0224C143.059 68.1305 144.317 68.2878 144.19 67.7472C144.023 67.0396 141.659 65.1084 141.659 65.1084" fill="#FFC89F"/>
<path d="M138.25 66.9713L140.314 68.4603C140.466 68.588 140.648 68.6716 140.85 68.7109C141.459 68.819 142.717 68.9762 142.589 68.4357C142.422 67.7281 140.058 65.7969 140.058 65.7969" fill="#FFC89F"/>
<path d="M138.676 66.8331C138.676 66.8331 140.829 68.4203 140.996 69.128C141.123 69.6685 139.865 69.5063 139.256 69.4031C139.055 69.3687 138.868 69.2803 138.72 69.1525L137.566 68.3171C137.015 67.9191 136.887 67.1968 137.29 66.6366C137.964 65.698 140.052 64.9805 141.841 64.3122C144.76 63.2213 146.49 65.123 146.49 65.123L144.46 65.5702L138.676 66.8331Z" fill="#FFC89F"/>
<path d="M165.455 64.5787L136.312 70.9819L140.44 89.7672L169.583 83.364L165.455 64.5787Z" fill="white"/>
<path d="M162.612 65.6243L161.841 64.1403C161.6 63.6784 161.079 63.4376 160.573 63.5506L152.99 65.2164C152.484 65.3295 152.116 65.7668 152.086 66.2828L152.008 67.9535C151.983 68.4744 151.614 68.9118 151.103 69.0199L134.376 72.6955C133.737 72.838 133.344 73.4769 133.511 74.1108L139.87 90.612C140.027 91.2115 140.627 91.5751 141.231 91.4424L169.158 85.3049C169.762 85.1722 170.15 84.5874 170.042 83.9781L165.256 67.1329C165.143 66.4892 164.514 66.0715 163.875 66.214C163.369 66.327 162.848 66.0862 162.612 65.6243Z" fill="#FFB330"/>
<path d="M166.287 83.5459L156.311 85.7375C155.864 85.8358 155.417 85.5508 155.319 85.1036L155.078 84.0176C154.98 83.5705 155.265 83.1233 155.712 83.025L165.687 80.8334C166.135 80.7351 166.582 81.0201 166.68 81.4673L166.921 82.5533C167.019 83.0004 166.734 83.4476 166.287 83.5459Z" fill="white"/>
<path d="M164.933 84.1909L159.168 84.2745C158.996 84.2794 158.834 84.3138 158.697 84.3826C158.299 84.589 157.512 85.0509 157.984 85.2573C158.603 85.5324 164.859 85.5374 164.859 85.5374" fill="#FFC89F"/>
<path d="M166.432 79.4185L165.11 80.2096C164.874 80.3521 164.604 80.4553 164.309 80.5143L159.385 81.2907C159.385 81.2907 158.147 81.8804 158.751 82.2735C159.356 82.6666 164.874 82.6224 164.874 82.6224L158.216 82.7157C158.078 82.7157 157.946 82.7452 157.837 82.8042C157.415 83.0204 156.388 83.5904 156.953 83.8411C157.66 84.1555 164.791 84.1605 164.791 84.1605" fill="#FFC89F"/>
<path d="M159.477 85.8507C159.644 85.6886 160.033 85.5411 160.504 85.4281L164.411 85.4527L164.627 82.4257L166.431 79.4232L169.541 79.2119C169.541 79.2119 173.217 81.723 169.468 85.4134C169.207 85.6689 168.843 85.8507 168.421 85.9392L164.814 86.7008C164.74 86.7058 164.662 86.7058 164.583 86.7008C163.802 86.637 159.748 86.5633 159.463 86.4355C159.305 86.3618 159.325 85.9981 159.477 85.8507Z" fill="#FFC89F"/>
<path d="M165.331 80.4799L165.743 79.5266C165.905 79.0843 165.37 78.8091 164.918 78.4258L163.331 77.3398C163.129 77.2022 163.149 76.9664 163.375 76.9025C163.812 76.7747 164.672 76.5094 165.763 77.1187L169.96 79.2907L165.331 80.4799Z" fill="#FFC89F"/>
<path d="M189.369 88.7058L168.598 88.1898L169.384 77.3151L182.652 78.062L184.539 71.9195L193.654 56.2046L194.632 57.1186C197.129 59.4626 198.411 62.8778 197.866 66.2586C197.571 68.1014 196.942 69.9539 196.136 71.8065L189.369 88.7058Z" fill="#55BDFC"/>
<path d="M180.373 41.6837C180.373 41.6837 169.66 42.927 168.599 38.126C167.537 33.325 175.655 32.6174 180.373 41.6837Z" fill="#1C306B"/>
<path d="M153.305 66.8873L160.877 65.1035" stroke="#123466" stroke-miterlimit="10"/>
<path d="M184.49 40.7101C185.025 41.7813 184.593 43.0884 183.517 43.6241C182.445 44.1597 181.138 43.7272 180.603 42.6511C180.067 41.5798 180.5 40.2727 181.576 39.7371C182.647 39.2015 183.949 39.6388 184.49 40.7101Z" fill="#FFC89F"/>
<path d="M182.703 40.938L182.223 42.3784L182.372 42.4282L182.852 40.9878L182.703 40.938Z" fill="#F5AB74"/>
<path d="M183.236 41.9981L183.29 41.8507L181.85 41.3691L181.801 41.5166L183.236 41.9981Z" fill="#F5AB74"/>
<path d="M182.342 43.5509C182.342 44.0718 182.764 44.4944 183.285 44.4944C183.806 44.4944 184.229 44.0718 184.229 43.5509C184.229 43.03 183.806 42.6074 183.285 42.6074C182.764 42.6074 182.342 43.03 182.342 43.5509Z" fill="white"/>
<path d="M169.138 76.8175L168.359 88.4282L172.444 88.7021L173.222 77.0913L169.138 76.8175Z" fill="#24A3F2"/>
<path d="M171.713 78.7058C171.708 79.0989 171.389 79.4134 170.996 79.4085C170.603 79.4036 170.288 79.0842 170.293 78.691C170.298 78.2979 170.617 77.9834 171.01 77.9883C171.404 77.9933 171.718 78.3127 171.713 78.7058Z" fill="white"/>
<path d="M46.594 143.044L58.7906 152.504L43.9208 152.268L41.7389 149.835L40.5743 152.199L36.7168 152.12L38.6284 142.135L46.594 143.044Z" fill="#275996"/>
<path d="M53.1353 148.121L52.526 150.995L42.5996 150.794L43.9215 152.268L58.7914 152.504L53.1353 148.121Z" fill="#123466"/>
<path d="M41.2475 150.828L36.9772 150.745L36.7168 152.121L40.5743 152.199L41.2475 150.828Z" fill="#123466"/>
<path d="M29.2046 84.4258C29.2046 84.4258 26.4773 100.057 32.4036 103.448C36.0695 105.546 37.8189 121.32 37.8189 121.32C37.8189 121.32 35.1653 143.217 34.9835 144.15C34.8066 145.084 48.8657 144.617 49.4308 144.037C49.4308 144.037 50.7821 122.662 50.9443 118.819C51.8583 97.1334 48.9639 77.8115 48.9639 77.8115L29.2046 84.4258Z" fill="#24A3F2"/>
<path d="M26.0381 141.212L33.9939 154.028L20.4508 148.746L19.2813 145.778L17.409 147.547L13.9004 146.161L19.0552 137.665L26.0381 141.212Z" fill="#275996"/>
<path d="M30.3093 148.087L28.7663 150.515L19.7441 146.947L20.4518 148.746L33.9948 154.028L30.3093 148.087Z" fill="#123466"/>
<path d="M18.495 146.519L14.6129 144.986L13.9004 146.161L17.409 147.547L18.495 146.519Z" fill="#123466"/>
<path d="M26.7114 81.1973C26.7114 81.1973 19.6794 95.4233 24.4018 100.347C27.3257 103.394 24.2692 119.192 24.2692 119.192C24.2692 119.192 16.7458 139.433 16.3084 140.278C15.8711 141.123 28.0087 144.445 28.7164 144.052C28.7164 144.052 38.112 122.544 39.1489 118.843C43.2521 104.234 45.9499 83.2759 45.9499 83.2759L26.7114 81.1973Z" fill="#55BDFC"/>
<path d="M35.0666 41.1089L42.644 43.0892L42.6539 46.5634L34.7324 44.5978L35.0666 41.1089Z" fill="#123466"/>
<path d="M66.3887 40.3882C66.3887 40.3882 65.9661 39.7887 67.2241 38.8256C68.4821 37.8624 69.8432 36.5995 70.5312 37.2236C71.2143 37.8477 71.4747 38.1573 72.1479 38.3587C72.8212 38.5602 72.5951 39.4152 73.0865 40.1081C73.5828 40.801 73.5239 40.5946 73.7106 41.3907C73.8973 42.1916 74.9244 41.8722 74.5951 42.7273C74.2659 43.5823 73.7597 46.3587 70.3445 47.4938C70.3445 47.4938 68.6442 47.1499 67.0078 45.1744C65.3666 43.199 66.3887 40.3882 66.3887 40.3882Z" fill="#FFC89F"/>
<path d="M67.4548 42.8984C67.4548 42.8984 68.1035 43.6405 68.3344 43.5618C68.3344 43.5618 68.2312 44.1269 68.5212 44.4119C68.8062 44.697 69.4008 45.1294 69.7349 44.9476C69.7349 44.9476 69.8234 45.6503 70.2067 45.7486C70.59 45.8468 71.2091 45.6257 72.3148 45.0311C73.4205 44.4365 73.7202 44.068 73.7202 44.068C73.7202 44.068 72.8111 44.9427 71.843 45.7682C70.875 46.5938 70.3197 46.9083 69.6809 46.2793C69.042 45.6503 69.1944 45.493 68.1575 44.7756C67.1207 44.0631 66.4818 44.1417 66.1133 43.036C66.1182 43.036 66.8651 43.3948 67.4548 42.8984Z" fill="#F5AB74"/>
<path d="M61.3928 38.2552C58.2183 37.3019 56.4149 33.9407 57.3682 30.7712C58.3215 27.5967 61.6827 25.7933 64.8523 26.7466C68.0268 27.6999 69.8302 31.0611 68.8769 34.2356C67.9236 37.4051 64.5624 39.2085 61.3928 38.2552ZM64.2921 28.609C62.1447 27.9653 59.8744 29.184 59.2306 31.3314C58.5869 33.4788 59.8056 35.7491 61.953 36.3928C64.1004 37.0365 66.3707 35.8179 67.0145 33.6704C67.6582 31.523 66.4346 29.2528 64.2921 28.609Z" fill="#FC3063"/>
<path d="M68.1861 44.3293C67.9355 44.2555 67.7193 44.0786 67.5965 43.828L64.6087 37.8133C64.3679 37.3317 64.5645 36.747 65.0461 36.5062C65.5276 36.2654 66.1124 36.462 66.3532 36.9435L69.3409 42.9583C69.5817 43.4398 69.3852 44.0246 68.9036 44.2654C68.6677 44.3833 68.4171 44.3981 68.1861 44.3293Z" fill="#FC3063"/>
<path d="M67.1473 41.1392C67.1473 41.1392 66.1105 39.9303 65.4225 40.176C64.7346 40.4168 64.3709 40.9819 64.5036 41.5225C64.6412 42.0679 64.9999 42.8345 65.4323 43.4143C65.8648 43.9942 65.7714 44.2939 67.3636 45.5863C67.3636 45.5863 66.14 44.1809 66.1154 43.036C66.1154 43.036 67.0196 43.4979 67.4569 42.8984C67.8943 42.3038 67.7813 41.7338 67.1473 41.1392Z" fill="#FFC89F"/>
<path d="M73.7108 41.3902C73.5241 40.5893 73.5782 40.8006 73.0867 40.1077C72.5904 39.4148 72.8214 38.5647 72.1482 38.3583C71.475 38.1568 71.2145 37.8473 70.5315 37.2232C69.8484 36.5991 68.4823 37.8669 67.2243 38.8251C65.9663 39.7883 66.3889 40.3878 66.3889 40.3878C66.3889 40.3878 65.9417 41.6261 66.1236 43.0364C66.1432 43.0463 66.8754 43.3853 67.4602 42.8988C67.4602 42.8988 68.1088 43.6409 68.3398 43.5622C68.3398 43.5622 68.2366 44.1273 68.5265 44.4124C68.8115 44.6974 69.4061 45.1298 69.7403 44.948C69.7403 44.948 69.8287 45.6507 70.212 45.749C70.5953 45.8472 71.2145 45.6261 72.3202 45.0315C73.0032 44.663 73.3816 44.3829 73.5683 44.2207C73.6715 44.1224 73.7256 44.0684 73.7256 44.0684C73.7256 44.0684 73.6814 44.1224 73.5683 44.2207C73.2686 44.5057 72.5757 45.1544 71.8533 45.7686C70.8853 46.5942 70.33 46.9087 69.6912 46.2797C69.0523 45.6507 69.2047 45.4934 68.1678 44.776C67.1359 44.0635 66.497 44.1372 66.1236 43.0463C66.212 43.7588 66.4626 44.5106 67.0081 45.174C68.6445 47.1495 70.3447 47.4934 70.3447 47.4934C73.76 46.3583 74.271 43.5819 74.5954 42.7269C74.9246 41.8718 73.8976 42.1912 73.7108 41.3902Z" fill="#FFC89F"/>
<path d="M54.9456 66.8502L72.0612 48.6144L64.0857 41.1304L53.8498 52.0394L46.0266 45.9952L41.373 56.2507L54.9456 66.8502Z" fill="#123466"/>
<path d="M40.716 45.0259L28.5538 46.9718C22.6962 48.7556 21.5021 52.6622 22.1999 55.9251L26.2638 71.2764L25.7577 85.9251L37.4187 87.817C42.6423 88.6622 49.6203 88.4312 53.7382 85.1044L53.6203 82.1265L51.6252 60.5934C51.6006 56.5394 51.2026 51.1684 48.5342 48.1168C48.0527 47.5664 47.1239 46.7654 46.033 45.9939C45.4531 45.591 41.9396 45.1192 40.716 45.0259Z" fill="#275996"/>
<path d="M32.7949 34.8589L33.0898 45.0603C33.1586 46.0431 35.8564 46.0825 38.4756 46.5886C40.0136 46.8883 41.134 47.9449 40.9129 46.3969L39.9203 39.4436L32.7949 34.8589Z" fill="#FFC89F"/>
<path d="M40.4553 43.1926L40.0032 40.0575L34.4258 37.458L34.6174 38.716C34.6174 38.716 35.3938 40.8094 40.4553 43.1926Z" fill="#F5AB74"/>
<path d="M33.5293 39.5413L41.3082 42.0426C42.5416 42.4504 43.834 42.1654 44.7677 41.3988C45.4999 40.7993 45.9028 39.8853 46.0011 38.9467L46.2812 29.3202L35.1509 27.104L33.5293 39.5413Z" fill="#FFC89F"/>
<path d="M45.7885 32.4116L47.307 35.6893C47.533 36.1757 47.1006 36.6278 46.4962 36.5295L45.2578 36.3281L45.7885 32.4116Z" fill="#FFC89F"/>
<path d="M28.4556 93.1484L30.7848 98.5293C30.8536 98.6914 30.8831 98.8536 30.8634 99.001C30.7996 99.4384 30.6177 100.313 30.1902 99.9445C29.6251 99.458 26.9961 93.6497 26.9961 93.6497" fill="#FFC89F"/>
<path d="M33.115 90.2241L32.7907 91.7032C32.7317 91.9637 32.7317 92.2487 32.7857 92.5484L33.9897 97.3691C33.9897 97.3691 33.857 98.7106 33.1641 98.2732C32.4762 97.8359 30.2059 92.6959 30.2059 92.6959L32.8988 98.9121C32.9528 99.0447 32.9774 99.1725 32.9626 99.2904C32.9037 99.7524 32.7022 100.887 32.1862 100.44C31.5425 99.885 28.5449 93.261 28.5449 93.261" fill="#FFC89F"/>
<path d="M28.9037 98.7454C29.0118 98.539 29.0118 98.1311 28.943 97.6545L27.2771 94.0328L30.54 92.8633L33.1101 90.2245L32.0388 87.2663C32.0388 87.2663 27.7145 84.6569 25.1985 89.3203C25.0265 89.6397 24.9773 90.0378 25.056 90.4604L25.7243 94.0525C25.7488 94.1262 25.7783 94.195 25.8176 94.2687C26.2157 94.9714 27.9995 98.7159 28.255 98.937C28.4123 99.0697 28.8054 98.937 28.9037 98.7454Z" fill="#FFC89F"/>
<path d="M32.4024 91.5903L33.282 90.9023C33.7047 90.6124 34.2305 91.0202 34.8496 91.3151L36.717 92.4404C36.9577 92.5829 37.2034 92.4895 37.1838 92.2586C37.1396 91.8163 37.0757 90.9318 35.9405 90.1062L31.7734 86.9072L32.4024 91.5903Z" fill="#FFC89F"/>
<path d="M15.9648 75.7828L24.4465 92.8442L34.2401 87.9695L27.5767 74.5789L32.8593 54.2841C33.4981 51.8221 32.0239 49.3062 29.562 48.6674L27.8961 48.2349C25.4342 47.5961 22.9182 49.0703 22.2794 51.5322L15.9648 75.7828Z" fill="#123466"/>
<path d="M32.258 43.1675L39.8354 45.1429L39.8502 48.6171L31.9238 46.6515L32.258 43.1675Z" fill="#123466"/>
<path d="M34.6077 33.5118L38.023 30.529C38.023 30.529 45.7528 33.1825 47.3351 30.298C48.9174 27.4086 48.7307 25.9197 48.7307 25.9197C48.7307 25.9197 34.3817 20.8386 33.3891 29.1776C32.3964 37.5167 34.6077 33.5118 34.6077 33.5118Z" fill="#1C306B"/>
<path d="M32.039 33.3352C31.6311 34.5785 32.3044 35.9151 33.5476 36.3229C34.7909 36.7308 36.1275 36.0576 36.5354 34.8143C36.9432 33.5711 36.27 32.2345 35.0267 31.8266C33.7835 31.4188 32.4469 32.0969 32.039 33.3352Z" fill="#FFC89F"/>
<path d="M34.5838 34.8496L34.7263 34.7808L33.9843 33.3066L33.8418 33.3754L34.5838 34.8496Z" fill="#F5AB74"/>
<path d="M33.5805 34.5208L35.0596 33.7787L34.9859 33.6362L33.5117 34.3782L33.5805 34.5208Z" fill="#F5AB74"/>
</svg>
