<svg width="281" height="166" viewBox="0 0 281 166" fill="none" xmlns="http://www.w3.org/2000/svg">
<g opacity="0.4">
<path d="M168.181 134.413L175.877 131.459C177.301 130.915 178.271 129.375 178.271 127.367L170.575 130.321C170.575 132.329 169.604 133.869 168.181 134.413Z" fill="#FFB133"/>
<path d="M170.575 130.315L178.271 127.367L178.033 -1.09521L170.336 1.85315L170.575 130.315Z" fill="#FFB133"/>
<path d="M170.337 1.85355L178.033 -1.09989C178.028 -3.91609 176.102 -6.58486 173.733 -7.05762L166.036 -4.10417C168.405 -3.63142 170.332 -0.962644 170.337 1.85355Z" fill="#FFB133"/>
<path d="M107.608 -15.8115C105.239 -16.2843 103.322 -14.3882 103.327 -11.572L103.566 116.89C103.571 119.701 105.498 122.37 107.862 122.843L166.29 134.55C168.659 135.023 170.575 133.126 170.57 130.315L170.331 1.85323C170.326 -0.962963 168.4 -3.63174 166.031 -4.10449L107.602 -15.8115H107.608Z" fill="#FFC030"/>
<path d="M108.629 -3.17432L108.842 110.612L165.268 121.918L165.059 8.13621L108.629 -3.17432Z" fill="#FFEBCC"/>
<path d="M128.104 117.404C126.548 117.094 125.288 118.339 125.293 120.189C125.293 122.04 126.564 123.794 128.119 124.109L145.799 127.652C147.36 127.962 148.62 126.717 148.615 124.866C148.615 123.016 147.344 121.262 145.789 120.947L128.109 117.404H128.104Z" fill="#FFB133"/>
<path d="M192.886 63.693L193.902 63.144L193.78 18.2222L192.764 18.7763L192.886 63.693Z" fill="#A9A8AB"/>
<path d="M192.765 18.7763L193.781 18.2222L147.782 12.3052L146.765 12.8593L192.765 18.7763Z" fill="#A9A8AB"/>
<path d="M146.763 12.8594L146.89 57.7812L192.885 63.6932L192.763 18.7764L146.763 12.8594Z" fill="white"/>
<path d="M190.653 20.6114L148.882 15.2891L148.994 55.946L190.77 61.2632L190.653 20.6114Z" fill="#005DB5"/>
<path d="M186.063 24.6986L161.988 21.6333L162.054 45.0626L186.129 48.1279L186.063 24.6986Z" fill="#FFC030"/>
<path d="M174.905 32.659L150.83 29.5938L150.897 53.0231L174.977 56.0883L174.905 32.659Z" fill="#E2F4FF"/>
<path d="M178.196 115.008L178.928 114.607L178.836 82.1748L178.104 82.5764L178.196 115.008Z" fill="#A9A8AB"/>
<path d="M178.104 82.5764L178.836 82.1748L145.626 77.9048L144.894 78.3013L178.104 82.5764Z" fill="#A9A8AB"/>
<path d="M144.894 78.3013L144.98 110.738L178.195 115.008L178.104 82.5764L144.894 78.3013Z" fill="white"/>
<path d="M176.58 83.898L146.42 80.0601L146.506 109.411L176.666 113.255L176.58 83.898Z" fill="#FFC030"/>
<path d="M124.695 78.5182L125.432 78.1166L125.34 29.8296L124.608 30.2312L124.695 78.5182Z" fill="#A9A8AB"/>
<path d="M124.608 30.231L125.34 29.8294L80.601 23.5464L79.869 23.9429L124.608 30.231Z" fill="#A9A8AB"/>
<path d="M79.8701 23.9429L79.9565 72.2299L124.695 78.518L124.609 30.231L79.8701 23.9429Z" fill="white"/>
<path d="M123.084 31.5579L81.3947 25.6968L81.4811 70.9033L123.17 76.7644L123.084 31.5579Z" fill="#FFEBCC"/>
<g clip-path="url(#clip0_9660_6294)">
<path opacity="0.1" fill-rule="evenodd" clip-rule="evenodd" d="M104.046 39.7352C105.773 40.1979 107.245 41.3277 108.139 42.8759C109.033 44.4242 109.275 46.2642 108.812 47.991C108.35 49.7179 107.22 51.1903 105.672 52.0841C104.123 52.978 102.283 53.2203 100.557 52.7576C98.8296 52.2948 97.3573 51.1651 96.4634 49.6168C95.5695 48.0685 95.3273 46.2286 95.79 44.5017C96.2527 42.7748 97.3825 41.3025 98.9307 40.4086C100.479 39.5147 102.319 39.2725 104.046 39.7352ZM111.417 48.6889C112.766 43.6545 109.778 38.4797 104.744 37.1307C99.7093 35.7817 94.5345 38.7694 93.1855 43.8038C91.8365 48.8383 94.8242 54.0131 99.8586 55.362C104.893 56.711 110.068 53.7234 111.417 48.6889Z" fill="#005DB5"/>
<path fill-rule="evenodd" clip-rule="evenodd" d="M104.044 39.7354C105.724 40.1814 107.165 41.2624 108.063 42.7504C108.251 43.0493 108.55 43.2622 108.894 43.3433C109.238 43.4244 109.6 43.3672 109.902 43.1839C110.204 43.0007 110.423 42.7061 110.51 42.3636C110.597 42.0211 110.546 41.6581 110.368 41.3526C109.11 39.2703 107.093 37.757 104.742 37.1309C104.397 37.0384 104.029 37.0868 103.719 37.2656C103.41 37.4444 103.184 37.7388 103.091 38.0842C102.998 38.4296 103.047 38.7976 103.226 39.1072C103.404 39.4169 103.699 39.6429 104.044 39.7354Z" fill="#005DB5"/>
</g>
<path d="M89.584 63.2454L90.0883 59.6567L90.7907 59.7554L90.3764 62.7033L91.9554 62.9252L91.8653 63.566L89.584 63.2454Z" fill="#005DB5"/>
<path d="M93.8993 63.9146C93.537 63.8637 93.2268 63.7399 92.9687 63.5433C92.7139 63.3472 92.5276 63.0979 92.4098 62.7956C92.292 62.4932 92.2583 62.1626 92.3087 61.8038C92.3601 61.4381 92.4839 61.1279 92.68 60.8731C92.8766 60.615 93.1227 60.4265 93.4182 60.3077C93.7171 60.1894 94.046 60.1554 94.4049 60.2059C94.7637 60.2563 95.0705 60.3796 95.3253 60.5757C95.58 60.7718 95.7663 61.0211 95.8841 61.3234C96.002 61.6258 96.0354 61.9581 95.9845 62.3204C95.9341 62.6792 95.8105 62.9877 95.6139 63.2459C95.4207 63.5045 95.1747 63.693 94.8758 63.8113C94.5802 63.9301 94.2548 63.9645 93.8993 63.9146ZM93.9894 63.2738C94.2047 63.304 94.4033 63.2797 94.5852 63.2007C94.7675 63.1182 94.9176 62.9929 95.0353 62.8248C95.1565 62.6571 95.2336 62.4553 95.2668 62.2195C95.3004 61.9803 95.2821 61.7633 95.2118 61.5688C95.1416 61.3742 95.0282 61.2136 94.8718 61.087C94.7192 60.9576 94.5335 60.8774 94.3148 60.8467C94.0961 60.816 93.8955 60.8418 93.7132 60.9242C93.5313 61.0032 93.3798 61.1266 93.2586 61.2942C93.1374 61.4619 93.0601 61.6654 93.0264 61.9046C92.9933 62.1405 93.0118 62.3557 93.0821 62.5503C93.1523 62.7449 93.2654 62.9071 93.4214 63.0371C93.5779 63.1637 93.7672 63.2425 93.9894 63.2738Z" fill="#005DB5"/>
<path d="M95.954 64.1406L97.8733 60.7508L98.6218 60.856L99.5324 64.6435L98.7891 64.5391L98.5975 63.707L97.1108 63.4981L96.6974 64.2451L95.954 64.1406ZM97.4338 62.9109L98.4489 63.0536L98.1273 61.6596L97.4338 62.9109Z" fill="#005DB5"/>
<path d="M99.9624 64.704L100.467 61.1153L101.615 61.2767C101.981 61.3281 102.293 61.4504 102.552 61.6436C102.811 61.8334 103.002 62.0745 103.124 62.3671C103.247 62.6597 103.284 62.982 103.234 63.334C103.185 63.6826 103.061 63.9806 102.863 64.2281C102.664 64.4755 102.414 64.6564 102.112 64.7708C101.81 64.8852 101.476 64.9167 101.111 64.8653L99.9624 64.704ZM100.757 64.1465L101.203 64.2091C101.422 64.2399 101.625 64.2179 101.813 64.1433C102.002 64.0653 102.158 63.9478 102.281 63.7908C102.408 63.6344 102.486 63.4485 102.516 63.2331C102.547 63.0178 102.523 62.8175 102.444 62.6322C102.369 62.4474 102.251 62.2932 102.091 62.1696C101.931 62.0426 101.742 61.9637 101.523 61.9329L101.077 61.8702L100.757 64.1465Z" fill="#005DB5"/>
<path d="M103.552 65.2084L104.056 61.6198L104.759 61.7185L104.254 65.3072L103.552 65.2084Z" fill="#005DB5"/>
<path d="M105.034 65.4167L105.538 61.8281L106.271 61.9311L107.686 64.587L108.025 62.1775L108.722 62.2755L108.218 65.8641L107.52 65.7662L106.081 63.0598L105.736 65.5154L105.034 65.4167Z" fill="#005DB5"/>
<path d="M110.657 66.2697C110.291 66.2183 109.977 66.094 109.716 65.8969C109.455 65.6964 109.263 65.4465 109.141 65.1471C109.024 64.8447 108.99 64.5124 109.041 64.1501C109.092 63.7878 109.215 63.4793 109.412 63.2246C109.612 62.9669 109.864 62.7794 110.17 62.662C110.477 62.5413 110.812 62.5066 111.178 62.558C111.506 62.6041 111.783 62.7162 112.009 62.8944C112.239 63.073 112.41 63.2817 112.522 63.5206L111.898 63.7988C111.829 63.6462 111.718 63.5139 111.567 63.402C111.415 63.2901 111.256 63.2224 111.088 63.1988C110.863 63.1671 110.655 63.192 110.466 63.2734C110.277 63.3515 110.12 63.4758 109.995 63.6464C109.871 63.8136 109.792 64.0152 109.759 64.251C109.725 64.4902 109.743 64.7089 109.813 64.9069C109.887 65.1019 110.003 65.2647 110.163 65.3951C110.326 65.5227 110.525 65.603 110.761 65.6361C111.021 65.6726 111.248 65.6296 111.443 65.5072C111.638 65.3847 111.761 65.2051 111.812 64.9682L110.976 64.8508L111.053 64.3022L112.561 64.5141L112.499 64.9498C112.446 65.277 112.333 65.5469 112.161 65.7596C111.988 65.9689 111.772 66.118 111.512 66.2069C111.253 66.2925 110.968 66.3134 110.657 66.2697Z" fill="#005DB5"/>
</g>
<path d="M216.53 181.669H211.189L200.305 144.068H205.646L216.53 181.669Z" stroke="#043F7A" stroke-width="0.5621" stroke-miterlimit="10"/>
<path d="M152.725 181.669H158.06L168.945 144.068H163.609L152.725 181.669Z" stroke="#043F7A" stroke-width="0.5621" stroke-miterlimit="10"/>
<path d="M205.644 144.068H200.309L202.444 151.449H207.567C207.641 151.449 207.711 151.438 207.78 151.438L205.644 144.068Z" fill="#043F7A"/>
<path d="M163.608 144.068L161.473 151.438C161.542 151.438 161.611 151.449 161.686 151.449H166.808L168.944 144.068H163.608Z" fill="#043F7A"/>
<path d="M164.322 160.038H204.926" stroke="#043F7A" stroke-width="0.5621" stroke-miterlimit="10"/>
<path d="M210.924 139.739H207.127L212.756 116.394H216.552L210.924 139.739Z" stroke="#043F7A" stroke-width="0.5621" stroke-miterlimit="10"/>
<path d="M211.023 123.583H213.052C213.675 123.583 214.293 123.471 214.895 123.274L216.556 116.389H212.759L211.023 123.583Z" fill="#043F7A"/>
<path d="M207.564 147.743H161.682C158.072 147.743 155.148 144.819 155.148 141.209C155.148 137.598 158.072 134.675 161.682 134.675H207.564C211.174 134.675 214.097 137.598 214.097 141.209C214.097 144.819 211.174 147.743 207.564 147.743Z" fill="#85D1FF"/>
<path d="M213.054 122.022H194.815C191.876 122.022 190.071 119.642 190.779 116.703L196.248 94.0337C196.956 91.0942 199.911 88.7139 202.851 88.7139H221.089C224.029 88.7139 225.834 91.0942 225.126 94.0337L219.657 116.703C218.949 119.642 215.988 122.022 213.054 122.022Z" fill="#85D1FF"/>
<path d="M207.275 116.394V126.447C207.275 133.982 201.603 140.309 194.116 141.134L159.748 144.915V118.199L207.275 116.394Z" fill="#043F7A"/>
<path d="M177.801 120.222C177.801 120.222 183.552 124.275 192.408 120.222L196.646 79.416H187.743L177.971 119.898L177.801 120.222Z" fill="#293344"/>
<path d="M188.876 78.2661C188.876 78.2661 182.417 113.817 181.379 118.433C180.34 123.05 176.384 123.897 169.408 121.921C162.432 119.94 160.547 118.812 160.547 118.812L173.902 89.4063C175.164 86.6319 177.31 84.358 180.005 82.9362L188.876 78.2661Z" fill="#1074D2"/>
<path d="M180.718 116.362C179.344 116.032 179.152 111.484 179.152 111.484H184.701C184.701 111.484 182.779 116.857 180.718 116.362Z" fill="#293344"/>
<path d="M203.297 90.3543C203.297 90.3543 205.123 85.6415 211.253 87.5266" stroke="#293344" stroke-width="0.5494" stroke-miterlimit="10"/>
<path d="M182.629 107.123H172.97C172.97 107.123 163.991 108.699 162.602 113.459H174.855H183.359L182.629 107.123Z" fill="#FFC89F"/>
<path d="M195.441 72.6426L199.313 68.3239C199.952 67.6104 200.138 66.5986 199.797 65.704L199.169 64.0585C198.652 62.7113 197.481 61.7261 196.064 61.4599L191.676 60.6238C189.871 60.2777 188.034 61.0552 187.028 62.5941L186.612 63.2331H185.947C184.903 63.2331 183.976 63.8881 183.625 64.8679L183.332 65.6827C183.087 66.3696 183.593 67.0885 184.322 67.0885H189.227L195.441 72.6426Z" fill="#293344"/>
<path d="M188.803 64.4475C188.803 64.4475 185.906 63.7393 186.364 70.3478C186.364 70.3478 183.147 73.6334 188.627 75.5078L188.536 80.1406C188.536 80.1406 191.05 83.2345 195.448 79.885V70.6619C195.448 70.6619 194.809 69.9324 194.389 68.5958C194.149 67.829 193.446 67.3018 192.642 67.3018H191.843C191.444 67.3018 191.098 67.0196 191.029 66.6202C190.73 65.0226 189.9 61.343 188.803 64.4475Z" fill="#FFC89F"/>
<path d="M198.09 71.8118C197.626 72.9247 196.439 73.4892 195.443 73.0738C194.447 72.6585 194.016 71.4177 194.479 70.3048C194.942 69.1918 196.13 68.6274 197.126 69.0427C198.121 69.4581 198.553 70.6988 198.09 71.8118Z" fill="#FFC89F"/>
<path d="M195.443 77.627L208.894 85.1886L209.261 124.28C209.267 124.855 208.926 125.377 208.393 125.596C204.336 127.268 187.657 133.312 189.292 119.094C190.522 108.443 195.443 77.627 195.443 77.627Z" fill="#1074D2"/>
<path d="M189.352 118.641L209.273 124.429L209.172 113.412L189.586 116.798C189.49 117.459 189.415 118.076 189.352 118.641Z" fill="#005DB5"/>
<path d="M208.899 85.1885C212.196 86.9564 213.798 89.7947 214.081 94.5021C214.262 97.5161 213.016 107.948 212.094 115.068C211.604 118.849 208.042 121.442 204.288 120.744L180.719 116.356C182.535 116.692 181.917 107.123 181.917 107.123H200.225L203.713 88.0853L208.899 85.1885Z" fill="#1074D2"/>
<path d="M162.885 164.698H206.364" stroke="#043F7A" stroke-width="0.5621" stroke-miterlimit="10"/>
<path d="M200.949 160.038L203.793 164.698H206.365L204.927 160.038H200.949Z" fill="#043F7A"/>
<path d="M185.425 113.412H105.895V114.945H185.425V113.412Z" fill="#55BDFC"/>
<path d="M179.019 114.945H112.295V181.669H179.019V114.945Z" fill="#55BDFC"/>
<path d="M179.019 117.022L112.295 122.022V114.945H179.019V117.022Z" fill="#1074D2"/>
<path d="M176.479 115.931V180.162" stroke="#1074D2" stroke-width="0.5621" stroke-miterlimit="10"/>
<path d="M182.353 112.256H141.898V113.704H182.353V112.256Z" fill="#02519B"/>
<path d="M164.727 113.705H134.571L127.861 90.647H158.017L164.727 113.705Z" fill="#02519B"/>
<path d="M156.639 91.4937L162.683 112.256" stroke="#CFE3F6" stroke-width="0.5621" stroke-miterlimit="10"/>
<path d="M149.258 104.615H143.246C142.096 104.615 140.892 103.683 140.557 102.533L140.349 101.819C140.014 100.669 140.674 99.7368 141.824 99.7368H147.836C148.986 99.7368 150.19 100.669 150.525 101.819L150.733 102.533C151.069 103.683 150.408 104.615 149.258 104.615Z" stroke="#CFE3F6" stroke-width="0.5621" stroke-miterlimit="10"/>
<path d="M78.5079 61.8623C78.5079 61.8623 78.8676 64.2464 79.0935 64.4556C79.0935 64.4556 78.8676 64.8571 78.1816 64.8906" fill="#FFB392"/>
<path d="M85.56 73.0136L81.1515 92.3878C81.0343 92.9148 81.3857 93.4335 81.9211 93.5088L95.6487 95.483C96.1255 95.5499 96.5772 95.2404 96.686 94.772L101.095 75.3977C101.212 74.8707 100.86 74.3521 100.325 74.2768L86.5973 72.3025C86.1205 72.2356 85.6688 72.5451 85.56 73.0136Z" fill="#02519B"/>
<path d="M86.4134 73.6328L82.1973 92.1789L95.8245 94.1364L100.049 75.5903L86.4134 73.6328Z" fill="#E5F8FF"/>
<g opacity="0.3">
<path d="M98.6017 76.9626L87.0156 75.2979" stroke="#1074D2" stroke-width="0.57" stroke-linecap="round" stroke-linejoin="round"/>
<path d="M98.2086 78.7111L86.6309 77.0464" stroke="#1074D2" stroke-width="0.57" stroke-linecap="round" stroke-linejoin="round"/>
<path d="M93.3904 80.1667L86.1543 79.1294" stroke="#1074D2" stroke-width="0.57" stroke-linecap="round" stroke-linejoin="round"/>
<path d="M92.8708 81.6721L85.6348 80.6348" stroke="#1074D2" stroke-width="0.57" stroke-linecap="round" stroke-linejoin="round"/>
<path d="M92.3611 83.1779L85.125 82.1406" stroke="#1074D2" stroke-width="0.57" stroke-linecap="round" stroke-linejoin="round"/>
<path d="M95.0134 91.51L87.7773 90.4644" stroke="#1074D2" stroke-width="0.57" stroke-linecap="round" stroke-linejoin="round"/>
</g>
<path d="M80.2729 92.6138C81.0509 92.2457 81.6281 91.5681 82.1802 90.9156C82.7239 90.2631 83.2677 89.619 83.8198 88.9665C84.0373 88.7071 84.2632 88.4311 84.2883 88.0965C83.3764 88.0212 82.7825 89.2091 81.8707 89.276C82.2973 87.7702 82.908 86.3146 83.686 84.9594C83.8784 84.6248 84.0791 84.24 83.9453 83.8887C82.9582 84.2651 82.1216 84.9678 81.4022 85.7458C80.9003 86.2895 80.4318 86.8751 80.0219 87.4942C78.8173 89.3178 78.0644 91.4175 77.5625 93.5423" fill="#F2A181"/>
<path d="M76.3408 108.215L66.5366 99.9497C66.5366 99.9497 61.9775 106.14 63.6924 112.105C64.5373 115.041 65.5997 116.496 66.0598 117.885C66.4864 119.19 69.4394 137.602 69.2219 138.949C69.0044 140.296 67.415 144.06 66.8127 148.026C66.0849 152.794 66.2103 168.312 65.6415 172.427C65.081 176.543 68.8789 177.237 69.088 175.849C70.8782 163.945 75.5963 145.399 76.2572 139.451C76.918 133.503 76.6503 122.603 76.3408 108.223V108.215Z" fill="#FFBE9D"/>
<path d="M76.366 119.943L72.0996 129.722C73.8982 132.759 74.9355 136.339 75.0693 139.97C75.1446 141.86 74.9773 143.751 75.0275 145.633C75.0275 145.767 75.0526 145.909 75.0861 146.043C75.6549 143.249 76.0815 140.94 76.2488 139.434C76.7173 135.227 76.7173 128.551 76.5667 119.918C76.4998 119.918 76.4245 119.918 76.3576 119.926L76.366 119.943Z" fill="#F2A181"/>
<path d="M89.7256 182.123C89.5165 181.889 87.2411 181.521 86.1787 181.077C85.1665 180.651 83.9368 179.287 83.6942 178.71C83.4516 178.133 83.5101 175.205 83.5436 173.967C83.7527 165.493 85.3254 144.78 85.5513 139.819C85.9445 131.195 84.8235 122.302 81.5108 108.457L69.1635 98.9795C69.1635 98.9795 65.7086 105.412 66.863 111.561C67.5322 115.125 70.4936 115.677 70.9955 117.065C71.4974 118.454 78.9677 140.806 78.9677 140.806C78.9677 140.806 77.5121 145.642 77.4285 150.929C77.3532 155.446 79.4027 169.081 79.7875 174.276C79.8294 175.289 80.005 177.723 79.7122 178.492C79.3442 179.438 78.4156 180.55 78.4574 181.747C78.4825 182.441 78.9845 183.102 79.8628 183.369C80.7412 183.637 81.2264 183.135 81.5275 183.127C83.2675 183.052 83.7527 184.256 86.7559 184.248C87.6845 184.248 89.0313 183.738 89.7423 183.01C90.0184 182.725 89.9515 182.349 89.7423 182.115L89.7256 182.123Z" fill="#FFBE9D"/>
<path d="M66.7965 98.9047C65.96 99.8249 62.9736 104.802 62.9401 108.851C62.9066 112.9 64.2033 115.535 64.4793 116.347C65.2406 118.563 66.6627 120.538 66.6627 120.947C66.6627 121.357 68.8879 121.633 73.6143 121.332C82.3478 120.78 85.5517 119.149 85.5517 119.149C85.5517 119.149 85.8361 115.518 84.9411 107.638C84.5144 103.899 81.3272 97.9678 81.3272 97.9678" fill="#00284E"/>
<path d="M58.832 82.7173C58.832 82.7173 60.2374 89.7024 60.6055 90.9488C60.9736 92.1953 62.7972 100.084 64.5289 99.95C66.2605 99.8161 75.7301 91.9108 75.7301 91.9108L74.3916 89.2255L66.0597 93.1991C66.0597 93.1991 65.3068 84.1729 64.646 82.0229" fill="#FFBE9D"/>
<path d="M62.0527 87.0171C62.9311 90.1374 64.7464 93.425 65.2818 95.8426C65.3905 96.3278 71.1626 94.2281 71.171 92.0614" fill="#F2A181"/>
<path d="M64.4795 73.0386C64.4795 73.0386 61.7189 73.3314 60.3135 74.4021C56.7415 77.1376 59.5021 87.059 59.5021 87.059C59.5021 87.059 59.3264 87.586 61.7273 87.4521C64.1282 87.3183 66.0522 86.6323 66.0522 86.6323L65.3579 78.5012" fill="#85D1FF"/>
<path d="M61.3172 78.6519C61.3172 78.6519 61.016 84.4826 62.07 87.4272C63.1157 87.4105 64.0276 87.1679 64.0276 87.1679L61.3172 78.6436V78.6519Z" fill="#55BDFC"/>
<path d="M77.6888 54.7265C79.3535 56.8848 79.0272 59.9215 78.6173 62.6151C78.4082 63.9787 78.1991 65.3422 77.9983 66.7058C77.8979 67.3499 77.7724 68.061 77.2621 68.4792C76.7519 68.8975 76.0241 68.8975 75.3632 68.8641C75.3632 69.9934 75.3799 71.1227 75.3799 72.252C73.4475 72.3022 71.5235 72.3106 69.5911 72.2771C69.5911 71.4908 69.4154 70.6961 69.0892 69.9767C68.1439 69.9599 67.5165 69.0146 67.1484 68.1446C66.7218 67.1408 66.4122 66.0951 66.1111 65.0494C65.7095 63.6608 65.3331 62.247 65.2913 60.7998C65.2578 59.3526 65.6008 57.8552 66.5126 56.7342C67.14 55.973 67.9933 55.4292 68.8633 54.9775C70.0595 54.3501 71.4984 53.8566 72.7365 54.4087" fill="#FFBE9D"/>
<path d="M75.6897 65.0078C75.4638 63.8701 75.4805 63.2344 75.8486 62.4815C75.9741 62.2305 76.133 61.9963 76.3589 61.8373C76.6601 61.6282 77.0616 61.5864 77.3879 61.7286C77.6054 61.8206 77.781 61.9963 77.9065 62.2138C78.2997 60.6913 78.3833 59.0684 78.2662 57.4873C78.0822 54.9777 76.5764 53.037 74.368 52.1335C70.2773 50.4521 64.4048 52.1168 62.7484 56.1238C61.4936 59.1521 62.1294 63.5272 64.5303 66.0702C66.6551 68.3205 69.7168 68.6468 72.5359 68.1867C73.9831 67.9524 76.2083 68.0947 76.9529 66.1288C77.0114 65.9782 76.8776 65.8276 76.727 65.836C76.1414 65.8778 75.7315 65.217 75.6897 65.0078Z" fill="#02519B"/>
<path d="M76.007 59.6793C76.1576 59.9135 76.1241 60.2397 76.2663 60.4823C76.5089 60.8922 76.8268 61.0428 77.2534 61.2352C77.9478 61.5531 77.7888 62.5653 77.7637 63.017C78.2907 62.6657 78.3744 61.7204 78.4999 61.2436C78.6421 60.6998 78.7341 60.1477 78.893 59.6123C79.0436 59.0937 79.3113 58.6001 79.3615 58.048C79.5288 56.1491 78.3409 53.9239 76.9021 52.8615C75.8564 52.0835 74.2586 52.1169 73.0791 52.9033C72.5855 53.2379 72.2091 53.7398 71.9832 54.2919C71.8912 54.5345 71.8243 54.8106 71.9414 55.0365" fill="#02519B"/>
<path d="M66.7129 73.0638C66.8133 72.4029 66.9889 71.6333 67.608 71.3739C67.7753 71.2987 67.9677 71.2819 68.1517 71.2568C70.0339 71.0477 71.9329 70.9557 73.8235 70.9891C74.6098 70.9975 75.4213 71.0393 76.1156 71.3907C77.2114 71.9428 77.8221 73.1223 78.3491 74.2349" fill="#55BDFC"/>
<path d="M82.6663 97.2817C82.407 96.8885 81.7963 96.4284 81.5788 96.0018C81.0518 94.9728 80.6 90.6395 80.7757 89.5353C80.9681 88.3474 82.0138 87.7117 82.4906 85.0766C83.1013 81.6802 81.7043 79.0368 80.9263 77.8991C79.8221 76.3013 80.4746 76.3096 80.0981 74.3438C80.0312 73.9924 79.9475 73.616 79.7049 73.365C79.4707 73.1224 77.8227 72.3695 77.5049 72.3193C74.4431 71.8425 72.6446 72.219 69.5494 72.3528C68.0185 72.4197 66.4876 72.5954 64.9819 72.93C63.3172 73.2981 61.8699 73.7415 61.527 76.0001C61 79.4885 61.4433 83.027 62.5057 86.3314C63.2084 88.5231 67.4078 96.1189 66.3705 97.5912C66.1363 97.9258 65.534 98.5616 65.4671 98.9882C65.2077 100.527 68.671 101.063 70.16 101.188C72.4187 101.372 75.0203 101.247 77.2874 101.146C79.0023 101.063 82.7583 100.469 83.026 98.3441C83.0762 97.9258 82.8754 97.5912 82.6663 97.29V97.2817Z" fill="#85D1FF"/>
<path d="M82.0137 85.729C82.0137 86.3481 81.6707 87.1762 81.5536 87.5025C81.1186 87.72 79.412 88.0881 78.4333 87.6447C78.2158 85.6035 77.0195 81.6802 77.0195 81.6802C77.0195 81.6802 82.0053 85.1685 82.0053 85.7374L82.0137 85.729Z" fill="#55BDFC"/>
<path d="M79.8223 84.3067C79.8223 84.3067 85.4773 97.9758 87.9283 97.9758C89.7102 97.9758 94.0936 85.3608 94.0936 85.3608L91.3247 84.0558L88.2378 89.3427L85.1176 79.4883" fill="#FFBE9D"/>
<path d="M90.7812 84.9842C90.7812 84.9842 91.7014 83.537 91.6345 82.5164C91.6094 82.1233 91.3752 80.2662 91.5676 79.9064C91.76 79.5384 92.2285 78.3421 92.4962 78.1162C92.7638 77.882 93.7426 77.5139 93.9852 77.6729C94.2278 77.8402 94.5206 77.0789 94.9221 77.1375C95.3237 77.2044 95.6499 77.539 95.6499 77.8988C95.6499 78.2585 96.1853 78.3337 96.2439 78.5931C96.3024 78.8524 96.2773 79.095 96.3777 79.2874C96.4781 79.4882 96.7709 79.3878 96.8796 79.8813C96.9716 80.3331 96.8462 80.3833 96.8796 80.6091C96.9131 80.8434 97.1139 80.8183 97.0469 81.2616C96.98 81.705 96.6788 82.2822 96.4112 82.7758C96.1435 83.2777 95.5997 83.8967 94.8719 84.3401C94.5122 84.5576 94.3198 84.934 93.9685 85.5782" fill="#FFBE9D"/>
<path d="M92.2941 74.4273C92.2272 74.3186 92.0348 74.1345 91.8089 74.2935C91.583 74.4524 91.65 74.7285 91.7002 74.8372C91.7503 74.946 93.3732 78.6184 93.3732 78.6184C93.3732 78.6184 93.5071 78.7773 93.7664 78.5431C94.0508 78.2921 93.9588 78.175 93.9588 78.175C93.9588 78.175 92.3694 74.5361 92.2941 74.4273Z" fill="#02519B"/>
<path d="M94.0607 77.9326C93.7428 78.5014 93.3748 78.6855 93.0401 78.995C92.7808 79.2376 92.8143 79.3965 92.5215 79.6475C93.0234 79.6057 92.9398 79.3129 93.5923 78.8444C93.8934 78.6269 94.2029 78.3927 94.2615 78.0162C94.2782 77.8908 94.1276 77.8238 94.0524 77.9326H94.0607Z" fill="#F2A181"/>
<path d="M74.6172 72.1185C76.0895 72.1938 80.3809 71.4409 82.7651 73.9338C84.7644 76.0252 85.9021 81.4961 86.7052 83.713C84.7058 85.7541 82.7818 87.3937 79.7452 86.7329C79.6281 86.6492 78.1306 81.9144 77.0348 81.4961" fill="#85D1FF"/>
<path d="M85.5604 115.518C85.5604 115.518 86.5308 138.899 86.3551 140.606C86.1794 142.312 84.2805 174.594 84.2805 174.594C84.2805 174.594 80.3822 175.28 78.0483 174.594C78.0483 174.594 75.0367 149.448 78.0483 141.618L76.7098 134.114C76.7098 134.114 76.9106 139.702 76.7098 140.832C76.509 141.969 70.486 173.8 70.486 173.8C70.486 173.8 66.504 173.691 64.6804 172.101C64.6804 172.101 64.1115 149.983 68.2608 140.681L64.4629 116.346L66.6463 110.156L85.5437 115.518H85.5604Z" fill="#00284E"/>
<path d="M76.7178 134.114C76.1657 130.517 72.7275 117.76 72.5853 117.45C70.7114 115.995 68.9965 114.715 68.3691 113.502C69.3981 116.58 71.3639 116.739 72.1085 118.329C73.9321 122.261 72.5351 121.39 76.8014 134.558" fill="#02519B"/>
<path d="M59.962 71.9598C59.8699 73.2063 60.1293 74.4443 60.146 75.6908C60.1627 76.9372 59.895 78.284 58.9832 79.129C58.0714 79.9739 56.3648 80.0073 55.7207 78.9449C56.3816 80.3168 57.7953 81.2454 59.3011 81.5214C60.7985 81.7975 62.3628 81.4713 63.7515 80.8355C67.4322 79.1457 69.8917 75.2892 69.7745 71.2237C69.6825 67.8859 67.1478 64.6568 63.6009 66.4136C61.5263 67.4425 60.1293 69.6677 59.962 71.9598Z" fill="#02519B"/>
<defs>
<clipPath id="clip0_9660_6294">
<rect width="21.5708" height="21.5708" fill="white" transform="matrix(-0.965926 -0.258819 -0.258819 0.965926 115.51 38.6201)"/>
</clipPath>
</defs>
</svg>
